<?xml version="1.0" standalone="no"?><!DOCTYPE svg PUBLIC "-//W3C//DTD SVG 1.1//EN" "http://www.w3.org/Graphics/SVG/1.1/DTD/svg11.dtd"><svg t="1755163068336" class="icon" viewBox="0 0 1536 1024" version="1.1" xmlns="http://www.w3.org/2000/svg" p-id="6342" xmlns:xlink="http://www.w3.org/1999/xlink" width="300" height="200"><path d="M448 192l-204.8 576h121.6l44.8-128h204.8l44.8 128h121.6L576 192H448z m-9.6 361.6L512 320l73.6 233.6h-147.2zM1408 192l-76.8 402.56L1235.2 192h-102.4l-95.36 402.56L960 192h-48.64l-0.64 0.64C816.64 75.52 673.92 0 512 0 229.12 0 0 229.12 0 512s229.12 512 512 512c189.44 0 355.2-103.04 443.52-256 1.92-3.84 3.2-7.68 5.12-11.52 3.2-5.12 5.76-10.88 8.96-16l6.4 27.52H1088l96-390.4L1280 768h112l131.2-576H1408z m-552.32 490.88C792.32 808.96 662.4 896 512 896c-211.84 0-384-172.16-384-384s172.16-384 384-384 384 172.16 384 384c0 61.44-14.72 119.04-40.32 170.88z" fill="#1890ff" p-id="6343"></path></svg>