<?xml version="1.0" standalone="no"?><!DOCTYPE svg PUBLIC "-//W3C//DTD SVG 1.1//EN" "http://www.w3.org/Graphics/SVG/1.1/DTD/svg11.dtd"><svg t="1755143367185" class="icon" viewBox="0 0 1024 1024" version="1.1" xmlns="http://www.w3.org/2000/svg" p-id="12124" xmlns:xlink="http://www.w3.org/1999/xlink" width="200" height="200"><path d="M490.667 426.667c-106.667 0-192-85.334-192-192s85.333-192 192-192 192 85.333 192 192-85.334 192-192 192z m0-320c-70.4 0-128 57.6-128 128s57.6 128 128 128 128-57.6 128-128-57.6-128-128-128z" p-id="12125"></path><path d="M625.067 541.867c-10.667 0-21.334-6.4-27.734-17.067L537.6 422.4c-8.533-14.933-4.267-34.133 10.667-42.667 14.933-8.533 34.133-4.266 44.8 10.667L652.8 492.8c8.533 14.933 2.133 34.133-10.667 42.667-6.4 4.266-12.8 6.4-17.066 6.4zM277.333 680.533c-6.4 0-10.666-2.133-17.066-4.266-14.934-8.534-21.334-27.734-12.8-42.667l138.666-241.067c8.534-14.933 27.734-21.333 44.8-10.666 14.934 8.533 21.334 27.733 10.667 42.666L302.933 665.6c-4.266 8.533-14.933 14.933-25.6 14.933z" p-id="12126"></path><path d="M699.733 981.333H160c-53.333 0-96-42.666-96-96V714.667c0-53.334 42.667-96 96-96h311.467c17.066 0 32 14.933 32 32s-14.934 32-32 32H160c-17.067 0-32 14.933-32 32v170.666c0 17.067 14.933 32 32 32h539.733c17.067 0 32 14.934 32 32s-12.8 32-32 32z" p-id="12127"></path><path d="M701.867 981.333c-142.934 0-256-117.333-256-258.133 0-142.933 117.333-256 258.133-256 142.933 0 256 115.2 256 258.133 0 140.8-115.2 256-258.133 256z m0-450.133c-106.667 0-192 87.467-192 194.133s87.466 192 194.133 192S896 829.867 896 723.2s-85.333-192-194.133-192z" p-id="12128"></path><path d="M765.867 819.2c-8.534 0-17.067-4.267-23.467-8.533l-128-128c-12.8-12.8-12.8-32 0-44.8 12.8-12.8 32-12.8 44.8 0l128 128c12.8 12.8 12.8 32 0 44.8-4.267 6.4-12.8 8.533-21.333 8.533z" p-id="12129"></path><path d="M637.867 819.2c-8.534 0-17.067-4.267-23.467-8.533-12.8-12.8-12.8-32 0-44.8l128-128c12.8-12.8 34.133-10.667 44.8 2.133s10.667 32 0 42.667l-128 128c-4.267 6.4-12.8 8.533-21.333 8.533z" p-id="12130"></path></svg>