<?xml version="1.0" standalone="no"?><!DOCTYPE svg PUBLIC "-//W3C//DTD SVG 1.1//EN" "http://www.w3.org/Graphics/SVG/1.1/DTD/svg11.dtd"><svg t="1755143352696" class="icon" viewBox="0 0 1024 1024" version="1.1" xmlns="http://www.w3.org/2000/svg" p-id="11647" xmlns:xlink="http://www.w3.org/1999/xlink" width="200" height="200"><path d="M140.8 236.8c6.4 0 19.2-6.4 25.6-12.8 12.8-12.8 25.6-25.6 38.4-32 12.8-12.8 12.8-32 0-44.8s-32-19.2-44.8-6.4c-19.2 12.8-32 32-44.8 44.8-12.8 12.8-6.4 32 6.4 44.8 6.4 6.4 12.8 6.4 19.2 6.4z" p-id="11648"></path><path d="M512 0c-19.2 0-32 12.8-32 32s12.8 32 32 32c249.6 0 448 198.4 448 448S761.6 960 512 960 64 761.6 64 512c0-70.4 12.8-134.4 44.8-198.4 6.4-12.8 0-38.4-12.8-44.8-12.8-6.4-32 0-44.8 12.8C19.2 358.4 0 435.2 0 512c0 281.6 230.4 512 512 512s512-230.4 512-512S793.6 0 512 0z" p-id="11649"></path><path d="M768 576h-96L556.8 454.4c51.2-19.2 89.6-70.4 89.6-128 0-76.8-64-134.4-140.8-134.4s-134.4 57.6-134.4 128c0 57.6 38.4 108.8 89.6 128L352 576h-96v185.6h512V576zM435.2 320c0-38.4 32-70.4 76.8-70.4s76.8 32 76.8 70.4-38.4 76.8-76.8 76.8-76.8-32-76.8-76.8zM512 499.2l70.4 76.8H441.6l70.4-76.8z m192 198.4H320V640h384v57.6z" p-id="11650"></path></svg>