<?xml version="1.0" standalone="no"?><!DOCTYPE svg PUBLIC "-//W3C//DTD SVG 1.1//EN" "http://www.w3.org/Graphics/SVG/1.1/DTD/svg11.dtd"><svg t="1754357729825" class="icon" viewBox="0 0 1116 1024" version="1.1" xmlns="http://www.w3.org/2000/svg" p-id="5858" xmlns:xlink="http://www.w3.org/1999/xlink" width="217.96875" height="200"><path d="M557.839744 0a56.265389 56.265389 0 0 1 56.415831 56.415832v95.305145h294.641084a56.114947 56.114947 0 0 1 50.247701 30.765433l148.185584 249.207534c5.265478 8.575206 8.274322 18.730056 8.349544 29.712338a207.083713 207.083713 0 0 1-206.85805 208.136809c-114.260864 0-206.85805-94.026386-206.85805-208.21203 0-10.907061 3.008844-21.06191 8.424765-29.637117l99.216642-166.915641H614.255575v646.149326h294.641084a56.265389 56.265389 0 0 1 55.362736 67.548556 56.190168 56.190168 0 0 1-33.774278 41.221168 56.415832 56.415832 0 0 1-21.588458 4.287603H206.85805a56.340611 56.340611 0 0 1-52.128229-78.229954 56.340611 56.340611 0 0 1 52.128229-34.827373h294.565862V264.778303H306.149913L405.291335 431.769165a56.265389 56.265389 0 0 1 8.424764 29.787559 207.083713 207.083713 0 0 1-206.858049 208.061588C92.597185 669.543091 0 575.516704 0 461.331061v-2.03097a56.190168 56.190168 0 0 1 8.424764-27.606147l149.088238-250.862398a56.415832 56.415832 0 0 1 49.345048-29.110569h294.565862V56.415832a56.265389 56.265389 0 0 1 56.415832-56.415832zM282.906591 517.746893H131.260835a93.048512 93.048512 0 0 0 151.645756 0z m701.963388 0h-151.645755a93.048512 93.048512 0 0 0 151.645755 0zM206.85805 318.636617l-51.300797 86.278612h102.601593L206.85805 318.636617z m701.963388 0L857.520642 404.915229h102.601592l-51.300796-86.278612z" p-id="5859" fill="#1890ff"></path></svg>