<?xml version="1.0" standalone="no"?><!DOCTYPE svg PUBLIC "-//W3C//DTD SVG 1.1//EN" "http://www.w3.org/Graphics/SVG/1.1/DTD/svg11.dtd"><svg t="1756776316492" class="icon" viewBox="0 0 1024 1024" version="1.1" xmlns="http://www.w3.org/2000/svg" p-id="6568" xmlns:xlink="http://www.w3.org/1999/xlink" width="200" height="200"><path d="M969.728 664.576h-59.392v-147.968c0-14.848-12.288-27.136-27.136-27.136h-344.064v-114.688h214.016c32.768 0 58.88-26.624 58.88-58.88v-214.016c0-32.256-26.112-58.88-58.88-58.88h-482.304c-32.768 0-58.88 26.624-58.88 58.88v214.016c0 32.768 26.112 58.88 58.88 58.88h214.016v114.688h-344.064c-14.848 0-27.136 12.288-27.136 27.136v147.968h-59.392c-29.696 0-54.272 24.064-54.272 53.76v199.168c0 29.696 24.064 53.76 54.272 53.76h169.984c29.696 0 54.272-24.064 54.272-53.76v-199.168c0-29.696-24.064-53.76-54.272-53.76h-56.32v-120.832h316.928v120.832h-57.856c-29.696 0-53.76 24.064-53.76 53.76v199.168c0 29.696 24.064 53.76 53.76 53.76h169.984c29.696 0 53.76-24.064 53.76-53.76v-199.168c0-29.696-24.064-53.76-53.76-53.76h-57.856v-120.832h316.928v120.832h-56.32c-29.696 0-54.272 24.064-54.272 53.76v199.168c0 29.696 24.064 53.76 54.272 53.76h169.984c29.696 0 54.272-24.064 54.272-53.76v-199.168c0-29.696-24.064-53.76-54.272-53.76z" fill="#2aa515" p-id="6569"></path></svg>