<?xml version="1.0" standalone="no"?><!DOCTYPE svg PUBLIC "-//W3C//DTD SVG 1.1//EN" "http://www.w3.org/Graphics/SVG/1.1/DTD/svg11.dtd"><svg t="1747644653050" class="icon" viewBox="0 0 1024 1024" version="1.1" xmlns="http://www.w3.org/2000/svg" p-id="38672" xmlns:xlink="http://www.w3.org/1999/xlink" width="200" height="200"><path d="M42.666667 512a469.333333 469.333333 0 1 0 938.666666 0 469.333333 469.333333 0 1 0-938.666666 0Z" fill="#FF6A00" p-id="38673"></path><path d="M807.168 656.682667a91.370667 91.370667 0 0 0 24.384-63.018667l0.448 0.149333v-94.016a91.370667 91.370667 0 0 0-24.448-62.933333 81.066667 81.066667 0 0 0-59.306667-25.92h-132.053333v-174.549333h-49.621333v176.128h-108.693334V234.666667l-104.426666 130.048h52.714666v46.08h-130.261333a81.066667 81.066667 0 0 0-59.413333 25.877333A91.370667 91.370667 0 0 0 192 499.626667v94.016a91.370667 91.370667 0 0 0 24.448 63.061333A81.066667 81.066667 0 0 0 275.904 682.666667h96.149333v-60.949334h-96.149333c-14.144-0.810667-25.344-13.013333-25.706667-28.053333V499.626667c0.469333-15.296 12.032-27.562667 26.453334-28.053334h472.64c14.4 0.490667 25.984 12.757333 26.453333 28.053334v94.016c-0.426667 15.317333-12.032 27.626667-26.453333 28.053333h-38.848L671.744 682.666667h76.074667a81.088 81.088 0 0 0 59.349333-25.984zM469.333333 768h-42.666666V512h42.666666v256z m85.333334 21.333333V512h51.626666v112.192H661.333333L554.666667 789.333333z m-25.28-106.666666h-34.773334l0.405334-42.666667h34.346666v42.666667z" fill="#FFFFFF" p-id="38674"></path></svg>