<?xml version="1.0" standalone="no"?><!DOCTYPE svg PUBLIC "-//W3C//DTD SVG 1.1//EN" "http://www.w3.org/Graphics/SVG/1.1/DTD/svg11.dtd"><svg t="1748935861918" class="icon" viewBox="0 0 1024 1024" version="1.1" xmlns="http://www.w3.org/2000/svg" p-id="9664" xmlns:xlink="http://www.w3.org/1999/xlink" width="200" height="200"><path d="M574.283597 735.255148l110.453921 62.522295 104.054505-62.522295V613.794231L684.737518 551.271936l-110.453921 62.522295zM404.635077 286.976053V411.572684l106.550277 64.122149 108.150132-64.122149V286.976053l-108.150132-64.058154zM233.706674 736.98299l106.870248 64.250137 107.062231-64.250137V612.066389L340.576922 547.816252l-106.870248 64.250137z" fill="#ff6a00" p-id="9665"></path><path d="M1002.020566 193.224608c-21.438044-123.572724-49.083521-148.914412-171.696333-170.416449-171.440356-30.013261-467.029384-30.46122-637.317845-0.831924C69.561652 43.414278 44.283959 71.187744 22.845915 193.86455-7.167346 365.432894-7.679299 660.189998 21.822009 830.734435c21.37405 123.636718 49.083521 148.914412 171.696332 170.41645 171.440356 30.013261 467.029384 30.525215 637.381839 0.959912 123.572724-21.502038 148.786423-49.147515 170.224467-171.952309 30.013261-171.632339 30.46122-466.51743 0.895919-636.997874z m-513.169174 571.147883L340.448934 855.692158l-148.402458-91.319667V584.740882L340.448934 493.613198l148.402458 91.127684v179.631609z m22.397956-233.962651L362.84689 439.090173V259.458564l148.402458-91.127684 149.682342 91.127684V439.090173L511.249348 530.40984z m320.610745 233.962651L683.457634 855.692158l-151.026218-91.319667V584.740882l149.682341-91.127684 149.682342 91.127684v179.631609z" fill="#ff6a00" p-id="9666"></path></svg>