<?xml version="1.0" standalone="no"?><!DOCTYPE svg PUBLIC "-//W3C//DTD SVG 1.1//EN" "http://www.w3.org/Graphics/SVG/1.1/DTD/svg11.dtd"><svg t="1754448690037" class="icon" viewBox="0 0 1024 1024" version="1.1" xmlns="http://www.w3.org/2000/svg" p-id="5890" xmlns:xlink="http://www.w3.org/1999/xlink" width="200" height="200"><path d="M497.075575 387.934595V206.906428L253.40104 300.907975zM528.238783 206.906428v181.284128l253.40104-87.282581zM448.890983 499.085506L203.680684 396.573267v288.595628l245.210299-105.071845zM448.890983 801.375029V616.635432l-226.077241 95.217361z" fill="#ff6a00" p-id="5891"></path><path d="M1001.957949 193.276524c-21.436704-123.565002-49.080454-148.905106-171.685603-170.4058C658.842703-7.140662 363.272147-7.588593 192.994327 22.038852 69.557306 43.475556 44.281192 71.247286 22.844488 193.916425-7.166898 365.474048-7.678819 660.212732 21.820645 830.746513c21.372714 123.628992 49.080454 148.905106 171.685603 170.4058 171.429643 30.011386 467.000199 30.523307 637.342009 0.959852 123.565002-21.500694 148.777126-49.144444 170.21383-171.941564 30.011386-171.621613 30.459317-466.488277 0.895862-636.958067zM480.054192 853.27105l-307.536717-129.388107V351.652173l307.536717 129.452097v372.16678z m32.443012-422.335066L179.300433 300.971966l333.324751-130.219979 334.220613 130.219979-334.412584 129.964018z m338.763915-50.296267v343.179236l-307.472726 129.452097V481.04028l307.536716-129.388107v28.923553z" fill="#ff6a00" p-id="5892"></path><path d="M574.951601 574.337936l245.210299 110.383028v-286.675923L574.63165 500.045358l0.319951 0.12798zM574.951601 611.58021v196.833736l245.210299-103.472091-16.317491 6.526997z" fill="#ff6a00" p-id="5893"></path></svg>