<?xml version="1.0" standalone="no"?><!DOCTYPE svg PUBLIC "-//W3C//DTD SVG 1.1//EN" "http://www.w3.org/Graphics/SVG/1.1/DTD/svg11.dtd"><svg t="1748938270514" class="icon" viewBox="0 0 1134 1024" version="1.1" xmlns="http://www.w3.org/2000/svg" p-id="5035" xmlns:xlink="http://www.w3.org/1999/xlink" width="221.484375" height="200"><path d="M560.064985 488.369231v10.271507h-57.028923c-27.506215 0-49.782154 22.685538-49.782154 50.648616L453.238154 866.461538H30.846031C14.588062 866.461538 1.260308 853.6064 0.078769 837.316923L0 834.953846V488.369231h560.064985zM173.292308 551.384615a63.015385 63.015385 0 1 0 0 126.03077 63.015385 63.015385 0 0 0 0-126.03077z m386.78843-187.754338L560.049231 425.353846H0V236.307692h603.766154a206.170585 206.170585 0 0 0-43.685416 127.322585zM709.584738 0C726.614646 0 740.430769 14.099692 740.430769 31.507692v128.220554c-30.672738 3.308308-59.313231 13.611323-84.346092 29.317908H0V31.507692C0 14.099692 13.816123 0 30.846031 0z" fill="#1890ff" p-id="5036"></path><path d="M1084.416 546.548185h-57.060431v-135.010462c0-113.112615-90.427077-205.052062-201.649231-205.052061-111.222154 0-201.743754 91.939446-201.743753 205.052061v135.010462h-57.028923c-27.521969 0-49.813662 22.685538-49.813662 50.648615v369.711262c0 28.010338 22.291692 50.695877 49.813662 50.695876h517.545353c27.506215 0 49.797908-22.685538 49.797908-50.695876V597.1968c0-27.978831-22.291692-50.648615-49.860923-50.648615zM853.559138 786.983385v82.707692c0 3.702154-2.930215 6.852923-6.47483 6.852923h-42.661416a6.742646 6.742646 0 0 1-6.522092-6.852923v-82.707692a64.811323 64.811323 0 0 1-33.918031-57.391262c0-35.666708 27.679508-64.653785 61.739323-64.653785s61.692062 28.987077 61.692062 64.653785a64.575015 64.575015 0 0 1-33.870769 57.375508z m104.384985-245.460677h-246.862769v-134.994708c0-71.396431 55.453538-129.496615 123.4944-129.496615 68.056615 0 123.368369 58.100185 123.368369 129.496615v134.994708z" fill="#1890ff" p-id="5037"></path></svg>