<?xml version="1.0" standalone="no"?><!DOCTYPE svg PUBLIC "-//W3C//DTD SVG 1.1//EN" "http://www.w3.org/Graphics/SVG/1.1/DTD/svg11.dtd"><svg t="1746618833563" class="icon" viewBox="0 0 1290 1024" version="1.1" xmlns="http://www.w3.org/2000/svg" p-id="3476" xmlns:xlink="http://www.w3.org/1999/xlink" width="251.953125" height="200"><path d="M950.817505 373.485177A352.749911 352.749911 0 0 1 719.03459 705.932934V414.089483h84.592305l-169.184609-169.18461-169.18461 169.18461h84.592305v311.299681a355.28768 355.28768 0 0 1-310.453759-345.982526v-5.921461a356.133603 356.133603 0 1 1 711.421283 0z" p-id="3477"></path><path d="M1268.884571 673.787858v49.90946a301.148605 301.148605 0 0 1-300.302682 300.302682h-668.279207A301.148605 301.148605 0 0 1 0 723.697318v-49.90946a301.994528 301.994528 0 0 1 239.396222-294.38122 353.595834 353.595834 0 0 1 60.90646-5.921461H507.553828l-40.604306 40.604306h84.592305v338.369219h169.184609v-338.369219h84.592305L761.330743 373.485177h205.5593A301.148605 301.148605 0 0 1 1268.884571 673.787858z" p-id="3478"></path></svg>