<?xml version="1.0" standalone="no"?><!DOCTYPE svg PUBLIC "-//W3C//DTD SVG 1.1//EN" "http://www.w3.org/Graphics/SVG/1.1/DTD/svg11.dtd"><svg t="1760162872052" class="icon" viewBox="0 0 1024 1024" version="1.1" xmlns="http://www.w3.org/2000/svg" p-id="6754" xmlns:xlink="http://www.w3.org/1999/xlink" width="200" height="200"><path d="M0.256 1.216H949.76v146.304H0.256z" fill="#42B983" p-id="6755"></path><path d="M0.256 131.456h72.832v813.44H0.256V131.456z m876.672 0h73.28V394.88h-73.28V131.456z" fill="#42B983" p-id="6756"></path><path d="M58.24 866.304H511.36v78.592H58.24v-78.592z m0-235.712H438.4v78.592H58.24V630.592z m0-235.712h452.736v78.528H58.24V394.88z" fill="#42B983" p-id="6757"></path><path d="M292.288 131.456H365.44v752H292.288V131.456z m292.352 10.304h73.024V394.88H584.64V141.76zM936.32 862.272c17.536-33.92 49.664-51.776 80.064-47.68a323.712 323.712 0 0 0 1.536-124.608c-30.72 4.48-63.552-13.44-81.216-47.872-17.92-35.072-15.04-76.672 4.736-104.192a251.648 251.648 0 0 0-95.872-63.104 83.136 83.136 0 0 1-78.272 57.344 83.136 83.136 0 0 1-78.272-57.344c-35.84 12.8-68.096 34.368-95.104 62.208 19.648 27.584 22.4 69.312 4.288 104.32-17.728 34.368-50.624 52.16-81.28 47.552a322.688 322.688 0 0 0 1.024 124.544c30.336-3.904 62.4 14.08 79.872 48 17.152 33.536 15.232 72.896-2.112 100.352 27.2 27.52 59.648 48.704 95.424 61.248a82.688 82.688 0 0 1 76.096-51.52c34.112 0 63.36 21.184 76.032 51.52a249.792 249.792 0 0 0 94.656-60.416c-17.088-27.52-18.88-67.008-1.6-100.352z m-168.96 11.264c-61.44 0-111.36-56-111.36-124.992 0-69.056 49.92-125.056 111.36-125.056 61.376 0 111.232 55.936 111.232 125.056 0 68.992-49.856 124.992-111.296 124.992z" fill="#42B983" p-id="6758"></path></svg>