<?xml version="1.0" standalone="no"?><!DOCTYPE svg PUBLIC "-//W3C//DTD SVG 1.1//EN" "http://www.w3.org/Graphics/SVG/1.1/DTD/svg11.dtd"><svg t="1748938676788" class="icon" viewBox="0 0 1024 1024" version="1.1" xmlns="http://www.w3.org/2000/svg" p-id="5101" xmlns:xlink="http://www.w3.org/1999/xlink" width="200" height="200"><path d="M0 0" fill="#1890ff" p-id="5102"></path><path d="M905.6 105.6s-115.2 28.8-204.8 28.8C608 134.4 512 96 512 96s-92.8 38.4-185.6 38.4-204.8-28.8-204.8-28.8-19.2 64-19.2 166.4c0 256 96 419.2 208 512C371.2 838.4 512 928 512 928s153.6-92.8 220.8-147.2c112-92.8 195.2-252.8 195.2-512-3.2-96-22.4-163.2-22.4-163.2zM694.4 736c-44.8 38.4-134.4 92.8-182.4 121.6-44.8-28.8-124.8-83.2-169.6-121.6C259.2 665.6 160 528 160 272c0-38.4 3.2-70.4 6.4-92.8 44.8 9.6 105.6 19.2 160 19.2 76.8 0 150.4-22.4 185.6-35.2 38.4 12.8 112 35.2 185.6 35.2 54.4 0 115.2-9.6 160-19.2 3.2 22.4 6.4 54.4 6.4 92.8 0 208-57.6 371.2-169.6 464z" fill="#1890ff" p-id="5103"></path><path d="M128 288h768v32H128zM128 448h768v32H128zM192 608h640v32H192zM352 768h320v32H352z" fill="#1890ff" p-id="5104"></path><path d="M480 768h32v128h-32zM608 608h32v160h-32zM352 608h32v160h-32zM736 480h32v160h-32zM480 480h32v160h-32zM352 288h32v160h-32zM512 160h32v160h-32zM256 192h32v128H256zM608 288h32v160h-32zM768 160h32v160h-32zM224 448h32v160H224z" fill="#1890ff" p-id="5105"></path></svg>