<?xml version="1.0" standalone="no"?><!DOCTYPE svg PUBLIC "-//W3C//DTD SVG 1.1//EN" "http://www.w3.org/Graphics/SVG/1.1/DTD/svg11.dtd"><svg t="1749720036103" class="icon" viewBox="0 0 1024 1024" version="1.1" xmlns="http://www.w3.org/2000/svg" p-id="5252" xmlns:xlink="http://www.w3.org/1999/xlink" width="200" height="200"><path d="M51.712 685.056c20.48 18.432 48.128 4.096 61.952 6.144 13.824 2.048 43.008-17.408 55.808-18.944 12.8-1.536 121.344-10.752 179.712-37.376l-37.376-37.376s-4.608-17.408 6.144-25.088c10.752-7.168 29.696-5.12 43.52-12.288s57.856-50.688 93.184-49.664c34.816 0.512 78.336 25.088 93.184 25.088 14.848 0 32.768-43.52 161.28-43.52s185.856 156.16 185.856 156.16l-12.288 25.088s-9.216 32.256 0 37.376 37.376-11.776 55.808 18.944c18.432 30.208 31.232 49.664 31.232 49.664s25.088-61.952 12.288-99.84c-12.8-37.888-43.52-40.448-55.808-68.608-12.288-28.16-34.816-198.656-167.424-293.376S512 235.52 498.176 223.232c-14.336-12.288-18.432-39.424-18.432-68.608s18.432-99.84 18.432-99.84-59.904-19.456-87.04 68.608c-26.624 88.064-23.552 121.344-49.664 137.216-59.904 38.4-116.224 81.92-167.424 131.072-68.608 65.536-108.544 103.424-123.904 143.36s-33.28 98.304-31.232 112.128-8.192 19.456 12.8 37.888zM132.096 435.2l80.384-74.752-6.144-49.664s-49.152 21.504-61.952 49.664S132.096 435.2 132.096 435.2z m198.656 150.016c0.512 0 46.08 58.88 151.552 59.392 104.96 0.512 152.576-71.68 152.576-71.68s-92.16-17.92-105.472-25.088-28.16-28.672-61.952-25.088-66.048 20.48-68.096 31.232c-2.56 10.752-68.608 31.232-68.608 31.232z m-99.328-56.32c13.312-9.216 25.6-23.04 51.712-27.648 26.624-4.608 43.52 2.048 47.616 9.216 4.096 7.168-6.144 25.6-24.576 43.008-12.288 10.752-27.648 17.408-44.032 19.456-38.912 7.168-36.864 5.12-43.52 0-6.144-5.632-0.512-34.816 12.8-44.032z m-24.576 62.464H225.28l6.144 6.144-24.576 6.144v-12.288z m24.576 37.376c26.624-9.728 54.272-39.424 68.096-31.232 13.824 8.192 37.376 37.376 37.376 37.376l-167.424 31.232s-91.648 23.04-94.208 15.36 13.312-9.216 35.84-12.288c22.528-2.56 14.336-17.408 55.808-24.064 40.96-6.144 37.888-6.656 64.512-16.384z m297.984-105.984s88.064-102.912 173.568-105.984 141.312 74.752 145.92 95.744c1.536 7.168-66.048-44.032-83.968-49.152-15.36-4.096-38.912 2.56-38.912 2.56s36.864 8.192 57.344 19.968c20.48 11.776 39.936 38.912 39.936 38.912s-73.728-44.032-120.832-46.08c-29.184-1.024-58.368 3.584-86.016 12.8 0 0-50.176 27.136-61.952 31.232-8.704 2.048-17.408 2.048-25.088 0z m247.808 186.88s13.312-37.376 31.232-31.232 43.52 12.288 43.52 12.288 24.576-8.192 24.576-25.088c0.512-16.896-18.432-62.464-18.432-62.464s-70.144 26.112-80.384 56.32-0.512 50.176-0.512 50.176z m31.232-68.608c26.112-20.48 43.52-25.088 43.52-25.088 5.12 11.776 9.216 24.064 12.288 36.352 2.56 13.312-3.072 26.112-12.288 26.112-11.264 0-33.28-4.096-49.152-5.12-7.68 0-15.36 4.096-18.944 11.264-0.512 0.512-1.536-22.528 24.576-43.52z" p-id="5253" fill="#1890ff"></path><path d="M854.016 878.08v25.088h116.224v31.744h-116.224v25.088h122.368v31.232h-153.6v-144.384h157.184v31.232h-125.952zM669.184 903.168h106.496s31.232 12.8 31.232 44.032c0 30.72-31.232 44.032-31.232 44.032h-135.168v-31.232h128.512c7.168-5.12 8.192-14.848 3.072-22.016l-3.072-3.072h-106.496s-28.16-8.192-28.16-44.032 28.16-44.032 28.16-44.032h138.24v28.16h-132.096c-4.608 4.096-6.656 9.728-6.144 15.872 0 10.752 6.656 12.288 6.656 12.288zM578.048 843.776H474.112c-28.16 0-37.888 34.304-37.888 34.304v113.152H471.04v-47.104h110.08v47.104h34.304v-116.224s-12.8-31.232-37.376-31.232z m3.072 40.448v25.088H471.04v-25.088c2.048-3.584 5.632-5.632 9.728-6.144h91.136c3.584 0.512 7.168 3.072 9.216 6.144zM192 934.912H75.776v56.32H44.032v-147.456h31.744v59.392h116.224v-59.392h31.232v147.456h-31.232zM407.04 917.504c7.168-9.728 11.264-21.504 11.264-33.792 0-20.48-22.528-39.936-22.528-39.936H242.688v147.456h153.088c14.336-5.12 24.064-18.944 23.552-34.304 0-27.136-12.288-39.424-12.288-39.424z m-22.528 45.056H270.848v-22.528H384c3.584 2.048 5.632 6.144 5.632 10.24 0 5.12-2.048 9.216-5.12 12.288z m0-61.952H270.848v-22.528H384c3.584 2.048 5.632 6.144 5.632 10.24 0 4.608-2.048 8.704-5.12 12.288z" fill="#1890ff" p-id="5254"></path></svg>