<?xml version="1.0" standalone="no"?><!DOCTYPE svg PUBLIC "-//W3C//DTD SVG 1.1//EN" "http://www.w3.org/Graphics/SVG/1.1/DTD/svg11.dtd"><svg t="1748938844272" class="icon" viewBox="0 0 1549 1024" version="1.1" xmlns="http://www.w3.org/2000/svg" p-id="5573" xmlns:xlink="http://www.w3.org/1999/xlink" width="302.5390625" height="200"><path d="M1223.59700937 402.06391455c-12.71058574-85.23897099-39.02372754-181.40458623-74.6468165-287.88361523A422.51547656 422.51547656 0 0 1 1100.00328857 201.37045713 459.19778115 459.19778115 0 0 0 376.55912129 285.5502125a304.21783301 304.21783301 0 0 1 187.70413095 78.88367901 317.26290762 317.26290762 0 0 0-177.33496904-52.29179562 324.90040869 324.90040869 0 0 0 0 649.85656642h749.25557578A286.65715518 286.65715518 0 0 0 1223.59700937 402.06391455zM523.56707862 861.81917803a39.02372754 39.02372754 0 1 1-5.57481797-55.24644902 39.02372754 39.02372754 0 0 1 5.57481797 55.24644902z m623.43192744-137.58651563c-113.39180332 151.02182724-355.45041299 100.34672872-510.70910186 107.3710002 0 0-27.48385372 1.56094893-55.19070088 6.13230029 0 0 10.4806582-4.4598542 23.86022256-9.08695371 108.98769727-37.68577119 160.55476612-45.26752412 226.83935566-79.32966416 124.42994385-63.77592128 248.3581544-202.64464424 273.50058428-346.9209416-47.38595537 138.81297481-191.49500742 258.22558213-322.67048204 306.61500497C692.76281328 742.12782911 530.31260937 774.4617749 530.31260937 774.51752393l-6.57828544-3.51213575C413.241425 717.26413994 410.17527529 478.0486874 610.75723643 400.94895078c87.97063271-33.83914658 172.09463994-15.21925401 267.14529229-37.90876377 101.40594434-24.08321513 218.81161758-100.34672872 266.53206093-199.52274638 53.57400381 158.77082461 117.8516584 407.12897813 2.56441641 560.71522177z" fill="#2aa515" p-id="5574"></path></svg>