<?xml version="1.0" standalone="no"?><!DOCTYPE svg PUBLIC "-//W3C//DTD SVG 1.1//EN" "http://www.w3.org/Graphics/SVG/1.1/DTD/svg11.dtd"><svg t="1747654443123" class="icon" viewBox="0 0 3150 1024" version="1.1" xmlns="http://www.w3.org/2000/svg" p-id="64536" xmlns:xlink="http://www.w3.org/1999/xlink" width="615.234375" height="200"><path d="M2890.725744 690.438564h147.561025v-226.907897h-147.561025v226.907897z m146.72082-316.04841H3150.769231v421.415384c0 69.684513-7.351795 81.841231-26.098872 100.483283-14.651077 15.386256-38.308103 22.685538-79.058051 22.685538h-165.494154l-51.357539-56.713846v-23.525744h208.685949v-57.501538h-142.651077c-43.191795 0-65.220923-8.139487-83.154051-25.96759-23.630769-24.287179-33.42441-76.983795-33.42441-176.653128s11.421538-154.781538 35.866256-179.908923c18.773333-17.828103 41.590154-25.127385 82.340103-25.127385l84.808205 0.813949 56.214974 51.068718v-51.068718zM1700.548923 262.564103h133.697641l-192.380718 243.134359 200.520205 274.694564h-141.837128l-152.444718-215.565129h-35.866256v215.565129H1391.589744V262.564103h120.648205v200.966564h35.866256L1700.548923 262.564103z m880.403692 239.878564v-37.284103H2442.371282V778.765128h-112.508718v-404.348718h112.508718v51.042462l56.241231-51.068718h32.610461c4.883692-0.787692 10.60759-0.787692 16.305231-0.787692h48.915692c34.238359 0 56.241231 7.273026 71.732513 22.685538 17.119179 16.200205 23.630769 37.284103 23.630769 97.227487V778.765128h-112.482461V507.300103c1.627897-1.627897 1.627897-3.229538 1.627897-4.857436z m-592.633436 187.208205h147.561026v-226.934154h-147.561026v226.907897z m4.883693 89.114256c-40.749949 0-62.752821-6.459077-79.898257-25.101128-26.072615-26.755282-36.680205-63.225436-36.680205-177.493333 0-115.05559 10.60759-150.711795 36.680205-178.281026 17.119179-17.828103 39.122051-24.313436 79.898257-24.313436h136.953436c40.749949 0 62.752821 6.485333 79.872 24.313436 26.098872 27.569231 36.706462 63.225436 36.706461 178.281026 0 115.081846-10.60759 150.738051-36.706461 177.493333-17.933128 18.642051-39.122051 25.101128-79.872 25.101128h-136.953436z" fill="#043558" p-id="64537"></path><path d="M367.589744 876.150154L395.421538 840.205128h206.112821L708.923077 977.447385 689.834667 1024H424.093538l6.354052-46.552615z" fill="#169FCC" p-id="64538"></path><path d="M430.605128 408.20841L530.116923 236.307692h115.948308L1165.784615 839.995077 1125.481026 1024h-222.838154l13.96841-51.646359z" fill="#14B59A" p-id="64539"></path><path d="M551.384615 203.644718L599.04 115.528205 741.953641 0l244.919795 192.013128-31.770257 32.40041L997.74359 283.437949v63.172923L875.703795 446.358974l-204.8-242.714256z" fill="#1BC263" p-id="64540"></path><path d="M172.898462 587.565949h64.748307L406.449231 446.358974 630.153846 706.297436l-63.094154 94.680615h-206.506666l-142.572308 181.300513L185.186462 1024H0v-222.234256z" fill="#16BDCC" p-id="64541"></path></svg>