<?xml version="1.0" standalone="no"?><!DOCTYPE svg PUBLIC "-//W3C//DTD SVG 1.1//EN" "http://www.w3.org/Graphics/SVG/1.1/DTD/svg11.dtd"><svg t="1748936988833" class="icon" viewBox="0 0 1024 1024" version="1.1" xmlns="http://www.w3.org/2000/svg" p-id="6395" xmlns:xlink="http://www.w3.org/1999/xlink" width="200" height="200"><path d="M384 896a63.9625 63.9625 0 0 0-64-64V448a63.9625 63.9625 0 0 0 64-64H640a63.9625 63.9625 0 0 0 64 64v384a63.9625 63.9625 0 0 0-64 64z m128-768a96 96 0 1 1-96 96 96.025 96.025 0 0 1 96-96z m384 768a63.9625 63.9625 0 0 0-64-64V448a63.9625 63.9625 0 0 0 64-64h128L512 0 0 384h128a63.9625 63.9625 0 0 0 64 64v384a63.9625 63.9625 0 0 0-64 64A128.0125 128.0125 0 0 0 0 1024h1024a128.0125 128.0125 0 0 0-128-128z" fill="#1890ff" p-id="6396"></path></svg>