<?xml version="1.0" standalone="no"?><!DOCTYPE svg PUBLIC "-//W3C//DTD SVG 1.1//EN" "http://www.w3.org/Graphics/SVG/1.1/DTD/svg11.dtd"><svg t="1761026912814" class="icon" viewBox="0 0 1024 1024" version="1.1" xmlns="http://www.w3.org/2000/svg" p-id="2873" xmlns:xlink="http://www.w3.org/1999/xlink" width="200" height="200"><path d="M911.52611 476.83008A329.949385 329.949385 0 0 0 718.029846 414.634852c-183.130393 0-331.64618 148.454085-331.64618 331.64618A330.520125 330.520125 0 0 0 498.618903 994.938539H82.256406A55.238371 55.238371 0 0 1 26.97176 939.715594V55.284647A55.346349 55.346349 0 0 1 82.256406 0H856.241463a55.346349 55.346349 0 0 1 55.284647 55.284647z m-36.403953 327.141961h9.378646a28.182213 28.182213 0 0 0 19.621113-8.144613 27.765727 27.765727 0 0 0 8.144613-19.49771v-55.284647a27.765727 27.765727 0 0 0-27.765726-27.642323h-9.378646a167.1651 167.1651 0 0 0-30.357194-52.569776l4.627621-8.268017a27.642323 27.642323 0 0 0-10.119065-37.761388l-47.818751-27.642323a27.657749 27.657749 0 0 0-37.761389 10.119065l-4.627621 8.144613a167.396481 167.396481 0 0 0-60.714389 0l-4.627621-8.144613a27.642323 27.642323 0 0 0-37.761388-10.242469l-47.818752 27.642324A27.657749 27.657749 0 0 0 587.839439 632.441552l4.627621 8.268017a164.820439 164.820439 0 0 0-30.233792 52.569775h-9.378645a28.182213 28.182213 0 0 0-19.621114 8.144614 27.673174 27.673174 0 0 0-8.144613 19.49771v55.284647a27.765727 27.765727 0 0 0 27.765727 27.642323H562.233268a165.05182 165.05182 0 0 0 30.357195 52.446373l-4.627621 8.268016a27.657749 27.657749 0 0 0 9.995661 37.82309l47.818752 27.642324a27.657749 27.657749 0 0 0 37.761388-10.119065l4.627621-8.144613a167.195951 167.195951 0 0 0 60.714389 0l4.627621 8.144613a27.657749 27.657749 0 0 0 37.946494 10.242468l47.818751-27.642324a27.657749 27.657749 0 0 0 10.119065-37.761388l-4.627621-8.268016a165.25235 165.25235 0 0 0 30.357194-52.446373zM718.029846 1022.519161c-152.711497 0-276.423235-123.650036-276.423235-276.299831S565.318349 469.919499 718.029846 469.919499s276.423235 123.773439 276.423234 276.299831S870.741343 1022.519161 718.029846 1022.519161z m0.493613-190.904796a82.988672 82.988672 0 1 1 83.050373-83.050374 82.973247 82.973247 0 0 1-83.050373 83.050374z m-525.697759-527.548807a82.942396 82.942396 0 0 0-82.92697 82.92697v55.161244h331.64618V386.869125A83.004097 83.004097 0 0 0 358.617939 303.880453H192.8257z m82.926971-27.642323a82.92697 82.92697 0 1 0-82.926971-82.926971 82.942396 82.942396 0 0 0 82.926971 82.926971z m248.780911-138.211618a27.472644 27.472644 0 0 0-24.927453 13.450952 27.858279 27.858279 0 0 0 0 28.382743 27.472644 27.472644 0 0 0 24.927453 13.450952h248.780911a27.472644 27.472644 0 0 0 24.927452-13.450952 27.858279 27.858279 0 0 0 0-28.382743 27.457219 27.457219 0 0 0-24.927452-13.450952z m-27.642324 165.853941A27.596047 27.596047 0 0 0 524.533582 331.64618h248.904314a27.457219 27.457219 0 0 0 24.927452-13.450952 27.765727 27.765727 0 0 0 0-28.382743 27.441793 27.441793 0 0 0-24.927452-13.450952H524.533582a27.596047 27.596047 0 0 0-27.642324 27.642323z m0 0" p-id="2874"></path></svg>