<?xml version="1.0" standalone="no"?><!DOCTYPE svg PUBLIC "-//W3C//DTD SVG 1.1//EN" "http://www.w3.org/Graphics/SVG/1.1/DTD/svg11.dtd"><svg t="1755587183792" class="icon" viewBox="0 0 1024 1024" version="1.1" xmlns="http://www.w3.org/2000/svg" p-id="12118" xmlns:xlink="http://www.w3.org/1999/xlink" width="200" height="200"><path d="M331.264 262.144h366.08c17.408 0 28.16-15.36 28.16-28.16v-87.04c0-17.408-13.312-28.16-28.16-28.16h-17.408c-17.408 0-28.16-15.36-28.16-28.16 0-30.72-24.064-54.272-54.272-54.272H435.712c-30.72 0-54.272 24.064-54.272 54.272 0 17.408-13.312 28.16-28.16 28.16h-19.456c-17.408 0-28.16 15.36-28.16 28.16v87.04c-3.072 17.408 10.24 28.16 25.6 28.16z m185.344-174.592c34.816 0 58.88 28.16 58.88 60.928 0 39.424-28.16 60.928-58.88 60.928S457.728 181.248 457.728 148.48s28.16-60.928 58.88-60.928z m309.248 44.032h-17.408c-17.408 0-30.72 10.752-30.72 28.16v128.512c0 17.408-13.312 28.16-28.16 28.16l-471.04 4.608c-17.408 0-28.16-15.36-28.16-28.16V164.352c0-17.408-13.312-28.16-28.16-28.16H204.8c-45.568-4.608-65.536 26.112-65.536 65.536v710.656c0 32.768 30.72 76.288 71.68 76.288h601.6c34.816 0 71.68-39.424 71.68-76.288V196.608c3.072-32.256-20.992-65.024-58.368-65.024zM411.648 753.664H300.544c-10.752 0-19.456-8.704-19.456-19.456s8.704-19.456 19.456-19.456h111.104c10.752 0 19.456 8.704 19.456 19.456s-8.704 19.456-19.456 19.456z m117.76-139.264H300.544c-10.752 0-19.456-8.704-19.456-19.456s8.704-19.456 19.456-19.456h228.864c10.752 0 19.456 8.704 19.456 19.456s-8.704 19.456-19.456 19.456z m213.504-154.624c0 10.752-8.704 18.944-18.944 18.944H300.032c-10.752 0-18.944-8.704-18.944-18.944v-1.024c0-10.752 8.704-18.944 18.944-18.944h423.936c10.752 0 18.944 8.704 18.944 18.944v1.024z" p-id="12119"></path></svg>