<?xml version="1.0" standalone="no"?><!DOCTYPE svg PUBLIC "-//W3C//DTD SVG 1.1//EN" "http://www.w3.org/Graphics/SVG/1.1/DTD/svg11.dtd"><svg t="1761026897019" class="icon" viewBox="0 0 1024 1024" version="1.1" xmlns="http://www.w3.org/2000/svg" p-id="2392" xmlns:xlink="http://www.w3.org/1999/xlink" width="200" height="200"><path d="M896 601.5872c-32-16.3584-68.258133-25.5872-106.666667-25.5872-129.604267 0-234.666667 105.0624-234.666666 234.666667 0 67.242667 28.283733 127.880533 73.6 170.666666H170.666667c-47.1296 0-85.333333-38.203733-85.333334-85.333333V128c0-47.1296 38.203733-85.333333 85.333334-85.333333h519.3216a85.333333 85.333333 0 0 1 60.3392 24.994133l120.6784 120.6784A85.333333 85.333333 0 0 1 896 248.6784v352.9088zM298.666667 298.666667a21.333333 21.333333 0 0 0 0 42.666666h384a21.333333 21.333333 0 1 0 0-42.666666H298.666667z m0 128a21.333333 21.333333 0 1 0 0 42.666666h384a21.333333 21.333333 0 1 0 0-42.666666H298.666667z m0 128a21.333333 21.333333 0 1 0 0 42.666666h213.333333a21.333333 21.333333 0 1 0 0-42.666666H298.666667z m512 256v-64a21.333333 21.333333 0 1 0-42.666667 0v106.666666h106.666667a21.333333 21.333333 0 1 0 0-42.666666h-64z m-21.333334 192c-106.039467 0-192-85.960533-192-192s85.960533-192 192-192 192 85.960533 192 192-85.960533 192-192 192z" p-id="2393"></path></svg>