<?xml version="1.0" standalone="no"?><!DOCTYPE svg PUBLIC "-//W3C//DTD SVG 1.1//EN" "http://www.w3.org/Graphics/SVG/1.1/DTD/svg11.dtd"><svg t="1761026937974" class="icon" viewBox="0 0 1028 1024" version="1.1" xmlns="http://www.w3.org/2000/svg" p-id="3033" xmlns:xlink="http://www.w3.org/1999/xlink" width="200.78125" height="200"><path d="M946.350711 334.862559h-291.184834v-291.184834M339.71564 713.402844c0-160.151659 101.914692-291.184834 242.654028-344.568721V38.824645c0-19.412322-19.412322-38.824645-38.824644-38.824645H121.327014C53.383886 0 0 53.383886 0 121.327014v776.492891C0 965.763033 53.383886 1019.146919 121.327014 1019.146919h383.393365c-97.061611-63.090047-165.004739-179.563981-165.004739-305.744075z" p-id="3034"></path><path d="M718.255924 412.511848c-169.85782 0-305.744076 135.886256-305.744076 305.744076s135.886256 305.744076 305.744076 305.744076 305.744076-135.886256 305.744076-305.744076-140.739336-305.744076-305.744076-305.744076z m38.824645 383.393365L679.43128 873.554502c-33.971564 33.971564-87.35545 33.971564-121.327015 0s-33.971564-87.35545 0-121.327014l53.383887-53.383886c0 14.559242 0 33.971564 9.706161 48.530806l-38.824645 33.971564c-19.412322 19.412322-19.412322 48.530806 0 67.943128 19.412322 19.412322 48.530806 19.412322 67.943128 0l77.649289-77.64929c19.412322-19.412322 19.412322-48.530806 0-67.943128 0-4.853081-4.853081-4.853081-9.706161-9.706161l29.118484-29.118483c4.853081 0 9.706161 4.853081 9.706161 9.706161 38.824645 33.971564 38.824645 87.35545 0 121.327014zM873.554502 679.43128l-53.383886 53.383886c0-14.559242 0-33.971564-9.706161-48.530806l33.971564-33.971564c19.412322-19.412322 19.412322-48.530806 0-67.943128-19.412322-19.412322-48.530806-19.412322-67.943128 0l-77.649289 77.649289c-19.412322 19.412322-19.412322 48.530806 0 67.943128 0 4.853081 4.853081 4.853081 9.706161 9.706161l-29.118483 29.118484-9.706162-9.706161c-33.971564-33.971564-33.971564-87.35545 0-121.327014l77.64929-77.64929c33.971564-33.971564 92.208531-33.971564 126.180094 0 38.824645 33.971564 38.824645 92.208531 0 121.327015z" p-id="3035"></path></svg>