<?xml version="1.0" standalone="no"?><!DOCTYPE svg PUBLIC "-//W3C//DTD SVG 1.1//EN" "http://www.w3.org/Graphics/SVG/1.1/DTD/svg11.dtd"><svg t="1749198918443" class="icon" viewBox="0 0 1024 1024" version="1.1" xmlns="http://www.w3.org/2000/svg" p-id="5567" xmlns:xlink="http://www.w3.org/1999/xlink" width="200" height="200"><path d="M95.061333 841.898667l0.170667-160.597334c0-40.106667 32.597333-72.704 72.704-72.704h214.016c24.064 0 23.893333-21.333333 23.893333-72.021333s-127.658667-93.354667-127.658666-271.701333C278.016 86.528 410.453333 34.133333 520.362667 34.133333s229.717333 52.394667 229.717333 230.741334c0 178.176-126.976 206.506667-126.976 271.701333 0 65.024 0 72.021333 20.309333 72.021333h212.821334c40.106667 0 72.704 32.597333 72.704 72.704v160.597334H95.061333zM897.706667 989.866667H126.293333c-18.602667 0-33.621333-15.018667-33.621333-33.621334s15.018667-33.621333 33.621333-33.621333h771.413334c18.602667 0 33.621333 15.018667 33.621333 33.621333S916.309333 989.866667 897.706667 989.866667z" fill="#333333" p-id="5568"></path></svg>