<?xml version="1.0" standalone="no"?><!DOCTYPE svg PUBLIC "-//W3C//DTD SVG 1.1//EN" "http://www.w3.org/Graphics/SVG/1.1/DTD/svg11.dtd"><svg t="1760086959321" class="icon" viewBox="0 0 1024 1024" version="1.1" xmlns="http://www.w3.org/2000/svg" p-id="2364" xmlns:xlink="http://www.w3.org/1999/xlink" width="200" height="200"><path d="M688.356 352.711c-182.045 0-335.645 147.911-335.645 335.645 0 187.733 147.911 335.644 335.645 335.644C870.4 1024 1024 876.089 1024 688.356c0-187.734-147.911-335.645-335.644-335.645z m56.888 375.467l11.378-11.378c5.69-5.689 17.067-5.689 22.756 0l91.022 96.711c5.689 5.689 5.689 17.067 0 22.756l-39.822 45.51c-5.69 5.69-17.067 5.69-22.756 0l-91.022-96.71c-5.689-5.69-5.689-17.067 0-22.756l11.378-11.378-17.067-17.066-130.844 142.222c-11.378 11.378-28.445 11.378-39.823 0l-11.377-11.378C512 853.333 512 830.578 523.377 819.2L671.29 694.044l-96.711-102.4h-28.445L512 534.756l28.444-28.445 56.89 34.133v28.445l96.71 102.4 28.445-22.756c-28.445-39.822-22.756-96.71 11.378-130.844 28.444-28.445 68.266-34.133 108.089-22.756l-62.578 62.578 51.2 56.889 62.578-62.578c17.066 34.134 5.688 79.645-22.756 108.09-34.133 34.132-79.644 39.821-119.467 17.066l-28.444 28.444 22.755 22.756z" p-id="2365"></path><path d="M307.2 688.356H182.044c-11.377 0-22.755-11.378-22.755-22.756s11.378-22.756 22.755-22.756H312.89c5.689-51.2 22.755-102.4 51.2-147.91H182.044c-11.377 0-22.755-11.378-22.755-22.756s11.378-22.756 22.755-22.756h210.49C460.8 364.09 568.888 307.2 688.355 307.2c68.266 0 130.844 17.067 187.733 45.511V56.89C876.089 28.444 853.333 0 819.2 0H659.911v85.333c0 11.378-11.378 22.756-22.755 22.756S614.4 96.71 614.4 85.333V0H261.689v85.333c0 17.067-11.378 28.445-22.756 28.445s-22.755-11.378-22.755-28.445V0H56.888C22.757 0 0 28.444 0 56.889v836.267c0 28.444 22.756 56.888 56.889 56.888h358.4C352.71 881.778 307.2 790.756 307.2 688.356zM182.044 250.31h512c11.378 0 22.756 11.378 22.756 22.756s-11.378 22.755-22.756 22.755h-512c-11.377 5.69-22.755-5.689-22.755-22.755s11.378-22.756 22.755-22.756z" p-id="2366"></path></svg>