<?xml version="1.0" standalone="no"?><!DOCTYPE svg PUBLIC "-//W3C//DTD SVG 1.1//EN" "http://www.w3.org/Graphics/SVG/1.1/DTD/svg11.dtd"><svg t="1761026902893" class="icon" viewBox="0 0 1024 1024" version="1.1" xmlns="http://www.w3.org/2000/svg" p-id="2552" xmlns:xlink="http://www.w3.org/1999/xlink" width="200" height="200"><path d="M512 606.991H387.132a30.54 30.54 0 0 0-30.358 30.118c0 16.143 13.613 30.117 30.358 30.117H512v124.868c0 16.746 13.975 30.359 30.118 30.359 16.625 0 30.117-14.095 30.117-30.359V667.226h124.868c16.264 0 30.359-13.492 30.359-30.117 0-16.143-13.614-30.118-30.359-30.118H572.235V482.123a30.54 30.54 0 0 0-30.117-30.358c-16.625 0-30.118 14.095-30.118 30.358v124.868zM754.869 50.176l136.433 125.892c29.154 27.407 50.597 81.558 50.597 120.29V893.65c0 38.731-33.731 70.475-74.993 70.475H173.658c-41.2 0-74.993-31.684-74.993-70.475V71.439c0-38.731 33.732-70.475 74.993-70.475L626.808 0.36c41.262 0 98.907 22.468 128.06 49.815z m102.7 182.814c-3.01-4.036-6.083-7.59-9.155-10.48L707.644 90.472a82.281 82.281 0 0 0-11.143-8.613v151.13H857.57z m-611.99-54.573c0 16.143 13.312 30.118 29.757 30.118h199.98a30.359 30.359 0 0 0 29.757-30.118c0-16.203-13.372-30.118-29.817-30.118h-199.92a30.359 30.359 0 0 0-29.757 30.118z m0 148.239c0 16.143 13.252 30.118 29.576 30.118h274.432a30.178 30.178 0 0 0 0-60.236H275.155a29.997 29.997 0 0 0-29.576 30.118z" p-id="2553"></path></svg>