<?xml version="1.0" standalone="no"?><!DOCTYPE svg PUBLIC "-//W3C//DTD SVG 1.1//EN" "http://www.w3.org/Graphics/SVG/1.1/DTD/svg11.dtd"><svg t="1760087245754" class="icon" viewBox="0 0 1024 1024" version="1.1" xmlns="http://www.w3.org/2000/svg" p-id="2258" xmlns:xlink="http://www.w3.org/1999/xlink" width="200" height="200"><path d="M972.8 848.457143c0-14.628571 7.314286-29.257143 14.628571-43.885714 7.314286-7.314286 7.314286-14.628571 0-21.942858l-29.257142-51.2c0-7.314286-7.314286-7.314286-21.942858-7.314285-29.257143 0-58.514286-14.628571-73.142857-43.885715 0-7.314286-7.314286-7.314286-14.628571-7.314285h-51.2c-14.628571 0-21.942857 7.314286-21.942857 7.314285-7.314286 29.257143-43.885714 51.2-73.142857 43.885715-7.314286 0-14.628571 0-14.628572 7.314285l-29.257143 51.2c-7.314286 7.314286-7.314286 14.628571 0 21.942858 21.942857 29.257143 21.942857 65.828571 0 87.771428-7.314286 7.314286-7.314286 14.628571 0 21.942857l29.257143 51.2c0 7.314286 7.314286 7.314286 14.628572 7.314286 36.571429-7.314286 65.828571 14.628571 80.457142 43.885714 0 7.314286 7.314286 7.314286 14.628572 7.314286h51.2c14.628571 0 21.942857-7.314286 21.942857-7.314286 14.628571-29.257143 43.885714-51.2 73.142857-43.885714 7.314286 0 14.628571 0 21.942857-7.314286l29.257143-51.2c7.314286-7.314286 7.314286-14.628571 0-21.942857-14.628571-14.628571-21.942857-29.257143-21.942857-43.885714z m-153.6 65.828571c-36.571429 0-73.142857-29.257143-73.142857-73.142857 0-36.571429 29.257143-73.142857 73.142857-73.142857 36.571429 0 73.142857 29.257143 73.142857 73.142857s-29.257143 73.142857-73.142857 73.142857z m0 0" p-id="2259"></path><path d="M848.457143 599.771429c29.257143 0 65.828571 7.314286 95.085714 14.628571v-512c0-51.2-36.571429-87.771429-87.771428-87.771429H102.4C51.2 14.628571 14.628571 51.2 14.628571 102.4v746.057143c0 51.2 36.571429 87.771429 87.771429 87.771428h402.285714C512 753.371429 658.285714 599.771429 848.457143 599.771429zM804.571429 241.371429h51.2v58.514285H804.571429v-58.514285z m0 204.8h51.2V512H804.571429v-65.828571zM95.085714 241.371429h650.971429v58.514285H95.085714v-58.514285z m0 204.8h650.971429V512H95.085714v-65.828571z" p-id="2260"></path></svg>