<?xml version="1.0" standalone="no"?><!DOCTYPE svg PUBLIC "-//W3C//DTD SVG 1.1//EN" "http://www.w3.org/Graphics/SVG/1.1/DTD/svg11.dtd"><svg t="1749468669255" class="icon" viewBox="0 0 1029 1024" version="1.1" xmlns="http://www.w3.org/2000/svg" p-id="2642" xmlns:xlink="http://www.w3.org/1999/xlink" width="200.9765625" height="200"><path d="M140.07599 0.026966a72.880436 72.880436 0 0 1 55.389131 24.050543 83.083696 83.083696 0 0 1 23.32174 59.761958V145.787837a84.541305 84.541305 0 0 1-23.32174 59.761957 72.880436 72.880436 0 0 1-55.389131 24.779348h-61.94837a72.880436 72.880436 0 0 1-54.660326-24.779348A84.541305 84.541305 0 0 1 0.145554 145.787837v-61.94837A83.083696 83.083696 0 0 1 23.467294 24.077509 72.880436 72.880436 0 0 1 78.12762 0.026966zM947.591216 0.026966a72.880436 72.880436 0 0 1 54.660327 24.050543 83.083696 83.083696 0 0 1 23.321739 59.761958V145.787837a84.541305 84.541305 0 0 1-23.321739 59.761957 72.880436 72.880436 0 0 1-54.660327 24.779348H443.987407a72.880436 72.880436 0 0 1-56.117936-24.779348A83.812501 83.812501 0 0 1 364.547732 145.787837v-61.94837a82.354892 82.354892 0 0 1 23.321739-59.761958A72.880436 72.880436 0 0 1 443.987407 0.026966zM145.906425 393.581318a72.880436 72.880436 0 0 1 55.389131 24.050543 85.998914 85.998914 0 0 1 17.491305 60.490762v64.134783a83.812501 83.812501 0 0 1-23.32174 59.033153 72.880436 72.880436 0 0 1-55.389131 24.779348h-61.94837a72.880436 72.880436 0 0 1-54.660326-24.779348A83.812501 83.812501 0 0 1 0.145554 542.257406v-64.134783a85.998914 85.998914 0 0 1 23.32174-60.490762 72.880436 72.880436 0 0 1 54.660326-24.050543z m801.684791 0a72.880436 72.880436 0 0 1 54.660327 24.050543 85.998914 85.998914 0 0 1 23.321739 60.490762v64.134783a83.812501 83.812501 0 0 1-23.321739 59.033153 72.880436 72.880436 0 0 1-54.660327 24.779348H443.987407a72.880436 72.880436 0 0 1-56.117936-24.779348A83.083696 83.083696 0 0 1 364.547732 542.257406v-64.134783a85.27011 85.27011 0 0 1 22.592935-60.490762 72.880436 72.880436 0 0 1 56.117935-24.050543zM145.906425 787.864474a72.880436 72.880436 0 0 1 55.389131 24.779348A82.354892 82.354892 0 0 1 218.786861 874.592192v64.863588a84.541305 84.541305 0 0 1-23.32174 59.761957 72.880436 72.880436 0 0 1-55.389131 24.779348h-61.94837a72.880436 72.880436 0 0 1-54.660326-24.779348 84.541305 84.541305 0 0 1-23.32174-63.405979V874.592192a82.354892 82.354892 0 0 1 23.32174-58.304348 72.880436 72.880436 0 0 1 54.660326-24.779349z m801.684791 0a72.880436 72.880436 0 0 1 54.660327 24.779348A82.354892 82.354892 0 0 1 1020.471652 874.592192v64.863588a84.541305 84.541305 0 0 1-23.32174 59.761957A72.880436 72.880436 0 0 1 947.591216 1020.353063H443.987407a72.880436 72.880436 0 0 1-56.117936-24.779348 83.812501 83.812501 0 0 1-23.321739-59.761957V874.592192a81.626088 81.626088 0 0 1 22.592935-58.304348 72.880436 72.880436 0 0 1 56.117935-24.779349z" p-id="2643"></path></svg>