<?xml version="1.0" standalone="no"?><!DOCTYPE svg PUBLIC "-//W3C//DTD SVG 1.1//EN" "http://www.w3.org/Graphics/SVG/1.1/DTD/svg11.dtd"><svg t="1747280433254" class="icon" viewBox="0 0 1024 1024" version="1.1" xmlns="http://www.w3.org/2000/svg" p-id="5022" xmlns:xlink="http://www.w3.org/1999/xlink" width="200" height="200"><path d="M940.752 653.09v153.772c0 12.81-4.491 23.705-13.455 32.677-8.973 8.964-19.868 13.455-32.677 13.455H740.847c-12.816 0-23.71-4.491-32.676-13.455-8.973-8.973-13.456-19.868-13.456-32.677V653.09c0-12.811 4.483-23.706 13.456-32.677 8.964-8.966 19.859-13.456 32.676-13.456h46.133v-92.262H540.943v92.262h46.132c12.811 0 23.706 4.491 32.677 13.456 8.966 8.972 13.456 19.867 13.456 32.677v153.772c0 12.81-4.491 23.705-13.456 32.677-8.972 8.964-19.867 13.455-32.677 13.455H433.303c-12.816 0-23.712-4.491-32.677-13.455-8.973-8.973-13.455-19.868-13.455-32.677V653.09c0-12.811 4.483-23.706 13.455-32.677 8.964-8.966 19.86-13.456 32.677-13.456h46.131v-92.262H233.4v92.262h46.132c12.811 0 23.705 4.491 32.677 13.456 8.966 8.972 13.455 19.867 13.455 32.677v153.772c0 12.81-4.49 23.705-13.455 32.677-8.973 8.964-19.867 13.455-32.677 13.455H125.76c-12.816 0-23.712-4.491-32.677-13.455-8.973-8.973-13.455-19.868-13.455-32.677V653.09c0-12.811 4.483-23.706 13.455-32.677 8.966-8.966 19.86-13.456 32.677-13.456h46.132v-92.262c0-16.654 6.081-31.071 18.259-43.248 12.172-12.172 26.587-18.259 43.248-18.259h246.035v-92.262h-46.131c-12.816 0-23.712-4.483-32.677-13.455-8.973-8.966-13.455-19.86-13.455-32.677V161.022c0-12.811 4.483-23.705 13.455-32.677 8.964-8.966 19.86-13.455 32.677-13.455h153.772c12.811 0 23.706 4.49 32.677 13.455 8.966 8.973 13.456 19.867 13.456 32.677v153.772c0 12.816-4.491 23.712-13.456 32.677-8.972 8.973-19.867 13.455-32.677 13.455h-46.132v92.262H786.98c16.655 0 31.071 6.091 43.248 18.259 12.172 12.179 18.26 26.595 18.26 43.248v92.262h46.132c12.81 0 23.705 4.491 32.677 13.456 8.964 8.973 13.455 19.868 13.455 32.677z" p-id="5023"></path></svg>