<?xml version="1.0" standalone="no"?><!DOCTYPE svg PUBLIC "-//W3C//DTD SVG 1.1//EN" "http://www.w3.org/Graphics/SVG/1.1/DTD/svg11.dtd"><svg t="1747281347107" class="icon" viewBox="0 0 1024 1024" version="1.1" xmlns="http://www.w3.org/2000/svg" p-id="3715" xmlns:xlink="http://www.w3.org/1999/xlink" width="200" height="200"><path d="M934.016 964.864h-371.2a30.4 30.4 0 0 1-30.72-30.016v-40.96a6.4 6.4 0 0 0-6.4-6.4H235.264a31.04 31.04 0 0 1-31.104-30.912v-155.2a6.4 6.4 0 0 0-1.92-4.544l-143.68-140.8a29.824 29.824 0 0 1-9.024-21.248 29.824 29.824 0 0 1 9.024-21.248l143.68-140.8a6.4 6.4 0 0 0 1.92-4.544V268.864a6.4 6.4 0 0 0-4.288-6.08 109.76 109.76 0 0 1-73.024-103.36A109.696 109.696 0 0 1 236.544 49.664a109.696 109.696 0 0 1 109.632 109.568 109.44 109.44 0 0 1-75.264 104.064 6.4 6.4 0 0 0-4.352 6.08V370.56a29.12 29.12 0 0 1-0.896 7.36 6.4 6.4 0 0 0 1.792 6.08l105.28 103.296a6.4 6.4 0 0 0 4.48 1.856h148.736a6.4 6.4 0 0 0 6.4-6.4v-20.864a30.336 30.336 0 0 1 30.72-29.952h371.2a30.336 30.336 0 0 1 30.72 29.952V607.36a30.336 30.336 0 0 1-30.72 29.952h-371.2a30.336 30.336 0 0 1-30.72-29.952v-49.92a6.4 6.4 0 0 0-6.4-6.4H406.592a6.4 6.4 0 0 0-4.928 2.368 23.232 23.232 0 0 1-2.304 2.496l-130.88 128.32a6.4 6.4 0 0 0-1.92 4.544v130.304a6.4 6.4 0 0 0 6.4 6.4h252.992a6.4 6.4 0 0 0 6.4-6.4v-29.824a30.336 30.336 0 0 1 30.72-29.952h371.2a30.336 30.336 0 0 1 30.72 29.952v145.472a30.4 30.4 0 0 1-30.976 30.144z m-333.952-145.472a6.4 6.4 0 0 0-6.4 6.4v5.184a6.4 6.4 0 0 0 1.728 4.352 30.72 30.72 0 0 1 8.448 21.248 30.656 30.656 0 0 1-8.448 21.184 6.4 6.4 0 0 0-1.728 4.416v16.32a6.4 6.4 0 0 0 6.4 6.4h296.832a6.4 6.4 0 0 0 6.4-6.4v-72.768a6.4 6.4 0 0 0-1.856-4.544 6.4 6.4 0 0 0-4.544-1.856z m-371.2-385.216a6.4 6.4 0 0 0-4.544 1.792l-96 94.208a6.4 6.4 0 0 0-1.92 4.544 6.4 6.4 0 0 0 1.92 4.544l96 94.208a6.4 6.4 0 0 0 4.48 1.856 6.4 6.4 0 0 0 4.48-1.856l96-94.208a6.4 6.4 0 0 0 1.984-4.544 6.4 6.4 0 0 0-1.984-4.544l-96-94.208a6.4 6.4 0 0 0-4.416-1.92z m374.208 57.6a6.4 6.4 0 0 0-5.696 3.52 6.4 6.4 0 0 0 0.512 6.4 30.784 30.784 0 0 1 5.824 18.048 30.72 30.72 0 0 1-8.448 21.248 6.4 6.4 0 0 0-1.728 4.352v25.6a6.4 6.4 0 0 0 6.4 6.4h296.832a6.4 6.4 0 0 0 6.4-6.4V498.304a6.4 6.4 0 0 0-6.4-6.4z" p-id="3716"></path></svg>