<?xml version="1.0" standalone="no"?><!DOCTYPE svg PUBLIC "-//W3C//DTD SVG 1.1//EN" "http://www.w3.org/Graphics/SVG/1.1/DTD/svg11.dtd"><svg t="1747280383083" class="icon" viewBox="0 0 1024 1024" version="1.1" xmlns="http://www.w3.org/2000/svg" p-id="4591" xmlns:xlink="http://www.w3.org/1999/xlink" width="200" height="200"><path d="M727.7 529.3c-37.7 25.4-82.9 40.2-131.5 40.2-48.4 0-93.4-14.7-131-39.9-101.8 49.8-172.1 155.6-172.1 278.1 0 129.6 607.3 127.8 607.3 0-0.2-122.8-70.6-228.7-172.7-278.4zM392.1 327.6c0-114.6 91.4-207.5 204.1-207.5S800.3 213 800.3 327.6 708.9 535 596.2 535s-204.1-92.8-204.1-207.4zM257 818.5c0 4.7 0.7 9.3 2.1 13.7-76.7-12.4-133.9-37-133.9-74 0-106 60.8-197.6 149-240.7 30.8 20.7 67.4 33.2 106.9 34.5C305.3 615.2 257 711.1 257 818.5z m101.1-490.9c0-52.7 16.6-101.4 44.7-141.1-4.9-0.4-9.8-0.6-14.8-0.6-92.8 0-168 76.4-168 170.7s75.2 170.7 168 170.7c20.9 0 40.9-3.9 59.3-11-54.3-44.2-89.2-112.3-89.2-188.7z" p-id="4592"></path></svg>