<?xml version="1.0" standalone="no"?><!DOCTYPE svg PUBLIC "-//W3C//DTD SVG 1.1//EN" "http://www.w3.org/Graphics/SVG/1.1/DTD/svg11.dtd"><svg t="1755055038443" class="icon" viewBox="0 0 1024 1024" version="1.1" xmlns="http://www.w3.org/2000/svg" p-id="11398" xmlns:xlink="http://www.w3.org/1999/xlink" width="200" height="200"><path d="M137.737143 0h748.457143c17.702857 1.177143 34.891429 9.177143 46.777143 22.411429 10.605714 11.462857 16.788571 26.674286 17.885714 42.205714v894.731428c-1.154286 17.142857-8.662857 33.817143-21.2 45.634286C918.057143 1016.251429 902.354286 1022.857143 886.285714 1024H137.817143c-17.702857-1.177143-34.891429-9.154286-46.765714-22.388571C80.422857 990.137143 74.251429 974.937143 73.142857 959.394286V64.674286c1.12-16.354286 7.954286-32.32 19.52-44C104.434286 8.457143 120.868571 1.165714 137.737143 0m94.514286 167.222857c-8.571429 1.051429-16.16 7.451429-18.697143 15.691429-2.48 7.417143-0.674286 16.034286 4.491428 21.908571 4.274286 5.005714 10.8 7.942857 17.382857 7.885714 117.714286 0.034286 235.417143 0 353.131429 0.022858 7.76 0.308571 15.554286-3.485714 19.897143-9.965715 5.337143-7.588571 5.291429-18.468571-0.137143-26-4.342857-6.354286-12.045714-10.068571-19.702857-9.76-85.714286 0.011429-171.428571 0-257.131429 0-33.074286 0.148571-66.171429-0.285714-99.234285 0.217143m0.068571 153.131429c-8.571429 1.028571-16.182857 7.394286-18.731429 15.622857-2.571429 7.691429-0.582857 16.662857 4.982858 22.548571 4.262857 4.685714 10.56 7.371429 16.88 7.325715 84.194286 0.045714 168.4 0 252.594285 0.022857 6.674286 0.228571 13.417143-2.422857 17.908572-7.405715 6.171429-6.502857 7.782857-16.8 3.988571-24.914285-3.52-7.988571-11.977143-13.485714-20.72-13.382857-55.245714-0.045714-110.491429-0.011429-165.748571-0.022858-30.377143 0.137143-60.788571-0.274286-91.154286 0.205715m558.697143 0.4c-14.228571 1.76-27.737143 8.48-37.908572 18.582857-23.577143 23.542857-47.131429 47.12-70.697142 70.674286 46.388571 46.377143 92.742857 92.8 139.154285 139.142857 23.554286-23.542857 47.108571-47.085714 70.64-70.64 11.931429-11.931429 18.971429-28.548571 19.234286-45.417143 0.434286-17.657143-6.571429-35.325714-19.005714-47.862857-15.405714-15.417143-30.811429-30.845714-46.24-46.228572-14.285714-14.148571-35.268571-21.085714-55.177143-18.251428M656.182857 436.148571c-84.971429 85.2-170.182857 170.182857-255.211428 255.325715-12.765714 46.72-25.085714 93.577143-37.725715 140.342857-3.725714 12.891429 2.72 27.668571 14.594286 33.828571 6.685714 3.668571 14.822857 4.548571 22.148571 2.468572 46.742857-12.662857 93.588571-24.937143 140.285715-37.725715 85.108571-84.994286 170.182857-170.068571 255.177143-255.188571-46.491429-46.274286-92.674286-92.88-139.268572-139.051429m-423.874286 30.491429c-8.205714 0.994286-15.542857 6.857143-18.377142 14.617143-2.548571 6.662857-1.702857 14.514286 2.228571 20.48 4.114286 6.457143 11.645714 10.491429 19.314286 10.4 59.782857 0.045714 119.565714 0 179.348571 0.022857 6.971429 0.262857 14.011429-2.64 18.525714-8.011429 5.737143-6.502857 7.12-16.411429 3.462858-24.262857-3.508571-8.034286-11.988571-13.542857-20.765715-13.428571-40.011429-0.045714-80.022857-0.011429-120.034285-0.022857-21.234286 0.137143-42.48-0.274286-63.702858 0.205714z" p-id="11399"></path><path d="M785.371429 371.737143c7.611429-7.851429 21.474286-7.771429 29.028571 0.125714 15.257143 15.222857 30.514286 30.445714 45.702857 45.725714 7.325714 7.428571 7.485714 20.502857 0.251429 28.045715-12.845714 13.04-25.874286 25.908571-38.8 38.88-24.834286-24.8-49.611429-49.657143-74.468572-74.434286 12.674286-12.868571 25.508571-25.588571 38.285715-38.342857zM441.977143 715.257143c71.28-71.645714 142.914286-142.971429 214.342857-214.491429 24.834286 24.822857 49.668571 49.657143 74.491429 74.502857-60.582857 60.605714-121.188571 121.177143-181.782858 181.771429-10.914286 10.765714-21.542857 21.862857-32.64 32.422857-23.142857 6.457143-46.422857 12.468571-69.611428 18.765714-10.742857 2.697143-21.337143 6.068571-32.171429 8.331429 9.314286-33.714286 17.942857-67.634286 27.371429-101.302857z" p-id="11400"></path></svg>