<?xml version="1.0" standalone="no"?><!DOCTYPE svg PUBLIC "-//W3C//DTD SVG 1.1//EN" "http://www.w3.org/Graphics/SVG/1.1/DTD/svg11.dtd"><svg t="1760086963464" class="icon" viewBox="0 0 1024 1024" version="1.1" xmlns="http://www.w3.org/2000/svg" p-id="2525" xmlns:xlink="http://www.w3.org/1999/xlink" width="200" height="200"><path d="M487.406778 190.834772a51.198191 51.198191 0 0 0 51.198191-48.29696V48.33314a49.320924 49.320924 0 0 0-51.198191-48.29696 51.198191 51.198191 0 0 0-51.198191 48.29696v94.204672a52.904797 52.904797 0 0 0 51.198191 48.29696zM235.511679 190.834772a51.198191 51.198191 0 0 0 51.198191-48.29696V48.33314a49.320924 49.320924 0 0 0-51.198191-48.29696 51.198191 51.198191 0 0 0-49.320924 48.29696v94.204672a52.563476 52.563476 0 0 0 49.320924 48.29696zM739.301878 190.834772a51.198191 51.198191 0 0 0 51.198191-48.29696V48.33314a49.320924 49.320924 0 0 0-51.198191-48.29696 51.198191 51.198191 0 0 0-51.198191 48.29696v94.204672a51.198191 51.198191 0 0 0 51.198191 48.29696zM972.765629 830.470838h-51.198191v-48.29696A49.320924 49.320924 0 0 0 870.369247 733.876918a51.198191 51.198191 0 0 0-51.198191 48.29696v48.29696h-51.198191a51.198191 51.198191 0 0 0-51.198191 48.29696 49.320924 49.320924 0 0 0 51.198191 48.29696h51.198191v48.296961a49.320924 49.320924 0 0 0 51.198191 48.29696 51.198191 51.198191 0 0 0 51.198191-48.29696v-48.1263h51.198191a48.467621 48.467621 0 1 0 0-96.764581z" p-id="2526"></path><path d="M643.561261 878.938459a118.097161 118.097161 0 0 1 105.638934-115.707912 122.022355 122.022355 0 0 1 217.25099-48.638281V142.537812a49.320924 49.320924 0 0 0-51.198191-48.296961h-85.330318v48.296961a98.641848 98.641848 0 0 1-98.641848 94.03401 96.764581 96.764581 0 0 1-98.641848-94.03401V94.070191h-49.491585v48.467621a98.641848 98.641848 0 0 1-98.641848 94.03401 96.764581 96.764581 0 0 1-98.641848-94.03401V94.070191h-51.198191v48.467621a98.641848 98.641848 0 0 1-98.641848 94.03401A96.764581 96.764581 0 0 1 136.528509 142.537812V94.070191H51.198191a51.198191 51.198191 0 0 0-51.198191 48.467621V972.801809a49.320924 49.320924 0 0 0 51.198191 48.29696h705.852393a114.171966 114.171966 0 0 1-7.850389-26.623059 116.561215 116.561215 0 0 1-105.638934-115.537251zM188.921325 365.591264h602.261387a51.198191 51.198191 0 0 1 51.198191 48.29696 49.320924 49.320924 0 0 1-51.198191 48.29696H188.921325a51.198191 51.198191 0 0 1-51.198191-48.29696 49.320924 49.320924 0 0 1 51.198191-48.29696zM494.915846 862.725698H177.999044A39.934589 39.934589 0 0 1 136.528509 822.449788a41.811856 41.811856 0 0 1 41.129214-40.27591H494.915846a39.934589 39.934589 0 0 1 41.129214 40.27591A38.398643 38.398643 0 0 1 494.915846 862.725698zM186.190755 669.196536a51.198191 51.198191 0 0 1-51.198191-48.29696 49.320924 49.320924 0 0 1 51.198191-48.29696h435.355284a51.198191 51.198191 0 0 1 51.198191 48.29696 52.904797 52.904797 0 0 1-51.198191 48.29696z" p-id="2527"></path></svg>