<?xml version="1.0" standalone="no"?><!DOCTYPE svg PUBLIC "-//W3C//DTD SVG 1.1//EN" "http://www.w3.org/Graphics/SVG/1.1/DTD/svg11.dtd"><svg t="1747655133699" class="icon" viewBox="0 0 1024 1024" version="1.1" xmlns="http://www.w3.org/2000/svg" p-id="71233" xmlns:xlink="http://www.w3.org/1999/xlink" width="200" height="200"><path d="M512 0a512 512 0 1 0 512 512A512 512 0 0 0 512 0z m302.08 696.6016a36.8384 36.8384 0 0 1-36.7104 36.7104H263.5264a36.8128 36.8128 0 0 1-36.7104-36.7104V403.5584l22.016 14.6688 242.2528 165.1712a35.84 35.84 0 0 0 42.2144 0l240.4096-161.4848c1.8432-1.8432 14.6688-11.008 40.3712-27.5456z m-60.544-324.8384c-159.6928 108.2624-240.4352 163.328-240.4352 161.5104l-242.2528-165.1712-44.032-27.5456v-11.008a36.7872 36.7872 0 0 1 36.7104-36.6848h513.8432a37.248 37.248 0 0 1 36.7104 38.4z" fill="#F46B6B" p-id="71234"></path></svg>