<?xml version="1.0" standalone="no"?><!DOCTYPE svg PUBLIC "-//W3C//DTD SVG 1.1//EN" "http://www.w3.org/Graphics/SVG/1.1/DTD/svg11.dtd"><svg t="1757927654227" class="icon" viewBox="0 0 1024 1024" version="1.1" xmlns="http://www.w3.org/2000/svg" p-id="7088" xmlns:xlink="http://www.w3.org/1999/xlink" width="200" height="200"><path d="M575.998 191.995A63.998 63.998 0 1 1 512 127.933a64.062 64.062 0 0 1 63.998 64.062zM32.031 896.003L0 1024h1024l-32.031-127.997z m0-512.013l32.031 64.063v383.952h128.01V447.989l32.031-64.063z m255.994 0l32.031 64.063v383.952h127.997V447.989l32.031-64.063z m255.993 0l32.032 64.063v383.952h127.996V447.989l32.032-64.063z m256.007 0l32.031 64.063v383.952h127.997V447.989l32.031-64.063zM512 0L0 319.992h1024z" fill="#1890ff" p-id="7089"></path></svg>