<?xml version="1.0" standalone="no"?><!DOCTYPE svg PUBLIC "-//W3C//DTD SVG 1.1//EN" "http://www.w3.org/Graphics/SVG/1.1/DTD/svg11.dtd"><svg t="1747881224472" class="icon" viewBox="0 0 1024 1024" version="1.1" xmlns="http://www.w3.org/2000/svg" p-id="4890" xmlns:xlink="http://www.w3.org/1999/xlink" width="200" height="200"><path d="M500.736 980.7872a21.58592 21.58592 0 0 0 19.12832 0l427.4176-213.72928a21.42208 21.42208 0 0 0 11.79648-19.08736V235.06944a20.64384 20.64384 0 0 0-3.35872-10.97728c-0.65536-1.06496-1.59744-1.76128-2.4576-2.70336-1.2288-1.35168-2.048-2.99008-3.60448-4.01408-3.11296-1.2288-3.39968-1.92512-4.05504-2.17088L518.22592 44.2368a21.17632 21.17632 0 0 0-15.89248 0L74.9568 215.20384c-2.33472 1.6384-3.2768 1.6384-4.01408 2.17088-1.55648 1.024-2.4576 2.6624-3.6864 4.01408-0.77824 0.94208-1.72032 1.6384-2.37568 2.70336a20.64384 20.64384 0 0 0-3.35872 10.97728v512.90112c0 8.06912 4.58752 15.48288 11.79648 19.08736l427.4176 213.72928z m-11.79648-560.25088L104.2432 266.6496v468.09088l384.69632 192.34816V420.53632z m42.72128 0v506.55232l384.69632-192.34816V266.6496l-384.69632 153.88672z m348.52864-185.46688l-369.8688-147.90656-369.8688 147.90656 369.8688 147.94752 369.8688-147.94752z" p-id="4891"></path><path d="M973.08672 213.23776c4.096 6.63552 6.47168 13.96736 6.47168 21.83168v512.90112c0 15.81056-8.92928 30.3104-23.10144 37.43744L528.87552 999.13728a42.06592 42.06592 0 0 1-37.2736 0L64.14336 785.36704A41.90208 41.90208 0 0 1 41.04192 747.97056V235.06944a40.5504 40.5504 0 0 1 6.30784-21.504 26.624 26.624 0 0 1 4.5056-5.69344 28.34432 28.34432 0 0 1 7.70048-7.53664c2.4576-1.47456 2.4576-1.47456 3.8912-2.08896 0.32768-0.12288 1.6384-0.8192 3.8912-2.048L494.67392 25.23136c10.0352-4.01408 21.17632-4.01408 31.1296 0L953.22112 196.1984c1.6384 0.69632 1.6384 0.69632 2.8672 1.39264l4.9152 2.74432a27.0336 27.0336 0 0 1 7.53664 7.3728 26.624 26.624 0 0 1 4.5056 5.5296z m-890.79808 21.7088C82.00192 235.3152 82.00192 235.3152 82.00192 235.1104v0.24576a10.28096 10.28096 0 0 0 0.28672-0.4096z m856.30976 0.16384c0 0.24576 0 0.24576-0.45056-0.49152a16.05632 16.05632 0 0 0 0.45056 0.73728V235.1104zM82.00192 747.9296c0 0.24576 142.62272 71.72096 427.8272 214.50752 0.4096 0.08192 143.1552-71.14752 428.2368-213.64736 0.24576-0.12288 0.4096-171.13088 0.53248-513.10592a53.32992 53.32992 0 0 1-2.74432-3.2768 10.15808 10.15808 0 0 0 2.4576 2.048l11.34592-17.08032-7.53664 19.0464c-2.00704-0.8192-3.6864-1.6384-4.9152-2.29376 0-0.2048-142.25408-57.1392-426.63936-170.88512-0.12288-0.04096-142.78656 56.9344-428.032 170.96704l-7.5776-19.00544 11.96032 16.5888a31.70304 31.70304 0 0 1-7.3728 4.096c0.8192-0.32768 0.8192-0.32768 2.74432-1.47456a10.28096 10.28096 0 0 0 2.37568-1.96608c-1.47456 1.8432-2.37568 173.6704-2.6624 515.52256z m427.4176-341.27872v553.5744L83.7632 747.39712V236.42112l425.65632 170.22976z m-40.96 27.72992L124.7232 296.96v425.1648l343.73632 171.86816v-459.5712z m42.72128-27.72992L936.83712 236.42112v510.976l-425.65632 212.82816V406.65088z m40.96 487.30112l343.73632-171.86816V296.96l-343.73632 137.46176v459.5712zM935.3216 235.1104L510.32064 405.0944 85.27872 235.1104l425.04192-169.984 425.00096 169.984zM510.32064 109.19936L195.584 235.1104l314.73664 125.87008L825.01632 235.1104l-314.69568-125.87008z" p-id="4892"></path></svg>