<?xml version="1.0" standalone="no"?><!DOCTYPE svg PUBLIC "-//W3C//DTD SVG 1.1//EN" "http://www.w3.org/Graphics/SVG/1.1/DTD/svg11.dtd"><svg t="1755161739654" class="icon" viewBox="0 0 1024 1024" version="1.1" xmlns="http://www.w3.org/2000/svg" p-id="6561" xmlns:xlink="http://www.w3.org/1999/xlink" width="200" height="200"><path d="M917.504 55.296H106.496a51.2 51.2 0 0 0-51.2 51.2v811.008a51.2 51.2 0 0 0 51.2 51.2h811.008a51.2 51.2 0 0 0 51.2-51.2V106.496a51.2 51.2 0 0 0-51.2-51.2zM230.4 626.346667a25.258667 25.258667 0 0 1-25.6-25.258667 308.224 308.224 0 0 1 307.2-307.2 25.6 25.6 0 0 1 0 51.2 257.024 257.024 0 0 0-256 256 25.941333 25.941333 0 0 1-25.6 25.258667z m360.789333 133.12a25.6 25.6 0 0 1-51.2 0v-141.653334a27.306667 27.306667 0 0 0-54.613333 0v141.653334a100.522667 100.522667 0 0 1-72.021333 94.890666A25.770667 25.770667 0 0 1 382.464 836.266667a25.429333 25.429333 0 0 1 18.602667-30.890667 49.493333 49.493333 0 0 0 33.109333-45.226667V617.813333a78.506667 78.506667 0 0 1 157.013333 0z m105.813334-35.84a25.6 25.6 0 1 1-51.2 0v-123.392a133.12 133.12 0 0 0-266.24 0v123.392a25.6 25.6 0 0 1-51.2 0v-123.392a184.32 184.32 0 0 1 368.64 0z m97.792-97.792a25.6 25.6 0 0 1-25.6-25.429334 257.706667 257.706667 0 0 0-150.357334-233.984 25.6 25.6 0 1 1 21.162667-46.592 308.906667 308.906667 0 0 1 180.394667 280.405334 25.6 25.6 0 0 1-25.6 25.6z m36.181333-290.133334a25.6 25.6 0 0 1-36.181333 0 406.016 406.016 0 0 0-565.589334-1.365333 25.6 25.6 0 1 1-35.84-36.522667 457.045333 457.045333 0 0 1 637.269334 1.365334 25.6 25.6 0 0 1 0.341333 36.010666z" fill="#1890ff" p-id="6562"></path></svg>