<?xml version="1.0" standalone="no"?><!DOCTYPE svg PUBLIC "-//W3C//DTD SVG 1.1//EN" "http://www.w3.org/Graphics/SVG/1.1/DTD/svg11.dtd"><svg t="1748936172527" class="icon" viewBox="0 0 1024 1024" version="1.1" xmlns="http://www.w3.org/2000/svg" p-id="10417" xmlns:xlink="http://www.w3.org/1999/xlink" width="200" height="200"><path d="M750.101 657.899c-16.512 0-30.272 2.752-44.032 8.256l-44.053-52.31c33.045-38.528 55.061-90.837 55.061-145.877 0-55.061-19.264-101.867-52.309-140.395l27.52-24.768c16.533 8.256 33.067 13.76 52.31 13.76 63.317 0 115.626-52.309 115.626-115.626 0-63.296-52.33-115.606-115.627-115.606-63.296 0-115.626 52.31-115.626 115.627 0 13.76 2.773 30.272 8.277 41.28l-35.776 30.293a223.147 223.147 0 0 0-112.853-30.293c-44.054 0-85.334 13.76-121.131 33.024l-41.301-52.288c0-5.504 2.773-13.781 2.773-19.285a74.027 74.027 0 0 0-74.325-74.304 74.027 74.027 0 0 0-74.326 74.304 74.027 74.027 0 0 0 74.304 74.325h8.278l44.032 55.04c-27.52 38.55-46.784 85.333-46.784 134.89 0 35.798 8.256 71.574 24.746 101.867l-35.776 30.294c-8.256-5.526-19.264-5.526-30.272-5.526-49.557 0-90.837 41.28-90.837 90.838s41.28 90.837 90.837 90.837 90.838-41.28 90.838-90.837c0-8.256 0-16.512-2.752-24.768l30.293-27.52c41.28 35.776 93.568 57.813 154.133 57.813 33.046 0 63.318-5.525 90.838-19.285l46.805 57.813c-11.008 19.264-19.264 44.032-19.264 68.8 0 77.077 63.296 140.395 143.147 140.395 79.808 0 143.146-63.318 143.146-140.374 0-77.098-66.09-140.394-145.92-140.394zM488.597 646.89c-99.093 0-181.674-79.83-181.674-178.923 0-99.115 82.581-178.944 181.674-178.944s181.675 79.83 181.675 178.944c0 99.093-82.56 178.923-181.675 178.923z m-57.813-181.696a33.024 33.024 0 1 1-66.027 0.021 33.024 33.024 0 0 1 66.048 0z m88.107 0a33.024 33.024 0 1 1-66.048 0.021 33.024 33.024 0 0 1 66.048 0z m90.837 0a33.024 33.024 0 1 1-66.048 0.021 33.024 33.024 0 0 1 66.048 0z" fill="#ff6a00" p-id="10418"></path></svg>