<?xml version="1.0" standalone="no"?><!DOCTYPE svg PUBLIC "-//W3C//DTD SVG 1.1//EN" "http://www.w3.org/Graphics/SVG/1.1/DTD/svg11.dtd"><svg t="1753697114498" class="icon" viewBox="0 0 1024 1024" version="1.1" xmlns="http://www.w3.org/2000/svg" p-id="5766" xmlns:xlink="http://www.w3.org/1999/xlink" width="200" height="200"><path d="M924.855712 446.555627c-48.403948-27.173255-116.2609-41.547145-196.256932-41.547145s-147.852983 14.37389-196.206141 41.547145c-43.528 24.481325-68.466445 58.663757-68.466445 93.912802v348.071624c0 35.249045 24.938446 69.431477 68.466445 93.912802 48.403948 27.173255 116.2609 41.496354 196.256932 41.496354s146.938743-14.170726 195.241109-40.937652c42.004266-23.313129 66.384009-54.397302 69.177521-87.97024h0.355538v-354.572888c-0.050791-35.249045-25.040028-69.431477-68.568027-93.912802z m-196.256932 498.565746c-121.898715 0-185.895541-42.055057-185.895541-56.58132v-74.764546c47.540499 23.668667 111.740489 36.163286 185.895541 36.163286s138.355042-12.494618 185.946332-36.163286v74.764546c0 14.526264-63.946034 56.58132-185.946332 56.58132z m0-174.010416c-121.898715 0-185.895541-42.055057-185.895541-56.632112v-74.713754c47.540499 23.668667 111.740489 36.112494 185.895541 36.112494s138.405833-12.443827 185.946332-36.112494v74.764545c0 14.526264-63.946034 56.479738-185.946332 56.479739z m0-174.010416c-121.898715 0-185.895541-42.105848-185.895541-56.632112s63.895243-56.632112 185.895541-56.632111S914.545112 525.942166 914.545112 540.468429s-63.946034 56.632112-185.946332 56.632112z" p-id="5767" fill="#1890ff"></path><path d="M810.931204 378.546302V188.841427C810.931204 66.180844 609.950697 0 420.65215 0S30.576261 66.028471 30.576261 188.841427V730.376469c0 122.660582 200.980507 188.841427 390.075889 188.841427h5.079113v-78.726254h-5.079113c-189.958831 0-311.248053-65.165022-311.248053-110.01359v-153.592382c71.564704 44.289867 189.552502 71.615495 311.248053 71.615496h5.079113v-78.827836h-5.079113c-189.958831 0-311.248053-65.165022-311.248053-110.013591V306.067358c71.767869 44.289867 189.704876 71.564704 311.248053 71.564704s239.73414-27.274838 311.248053-71.564704v66.841129a565.863995 565.863995 0 0 1 79.031001 5.637815zM420.65215 298.651853c-189.958831 0-311.248053-65.165022-311.248053-110.013591S230.896483 78.777045 420.65215 78.777045s311.248053 65.165022 311.248053 110.064382S610.864937 298.651853 420.65215 298.651853z" p-id="5768" fill="#1890ff"></path></svg>