<?xml version="1.0" standalone="no"?><!DOCTYPE svg PUBLIC "-//W3C//DTD SVG 1.1//EN" "http://www.w3.org/Graphics/SVG/1.1/DTD/svg11.dtd"><svg t="1748599181862" class="icon" viewBox="0 0 1024 1024" version="1.1" xmlns="http://www.w3.org/2000/svg" p-id="5117" xmlns:xlink="http://www.w3.org/1999/xlink" width="200" height="200"><path d="M109.468138 298.183297H14.09527v149.023305h95.372868z m798.613385-101.362469h101.311275V47.797523a46.995326 46.995326 0 0 0-47.71203-47.71203h-154.961713v95.372867h101.362468z m0 250.385774H1003.454391V298.183297h-95.372868z m-798.613385 101.362468H14.09527v149.023305h95.372868z m202.673743 345.758641h149.023305v101.362468H312.141881z m0-894.139832h149.023305v101.362468H312.141881z m244.396173 0h149.023306v101.362468H556.538054zM13.890498 47.899909v149.023306h101.362468v-101.362468h101.311275V0.187879H67.489742A48.735894 48.735894 0 0 0 13.839304 47.848716z m95.57764 745.116527H8.156863v149.023306a46.995326 46.995326 0 0 0 47.712031 47.71203h149.023305v-95.372868h-101.362468v-101.362468z" fill="#2c2c2c" p-id="5118"></path><path d="M994.802746 928.627132l-181.684545-181.735738 181.735738-181.735738a39.316351 39.316351 0 1 0-55.544585-55.646971l-181.786931 181.735738-181.786932-181.735738a39.316351 39.316351 0 1 0-55.493391 55.698164l181.684545 181.684545-181.735738 181.684545a39.316351 39.316351 0 0 0 55.544584 55.698164l181.786932-181.735738 181.786931 181.735738a39.316351 39.316351 0 0 0 27.746696 11.46727 39.265158 39.265158 0 0 0 27.695503-67.114241z" fill="#2c2c2c" p-id="5119"></path></svg>