<?xml version="1.0" standalone="no"?><!DOCTYPE svg PUBLIC "-//W3C//DTD SVG 1.1//EN" "http://www.w3.org/Graphics/SVG/1.1/DTD/svg11.dtd"><svg t="1748938027599" class="icon" viewBox="0 0 1024 1024" version="1.1" xmlns="http://www.w3.org/2000/svg" p-id="7352" xmlns:xlink="http://www.w3.org/1999/xlink" width="200" height="200"><path d="M197.76 309.12C64 407.04 24.32 575.36 105.6 684.8s256 118.4 384 20.48l14.08-11.52 64-384c-85.12-89.6-247.68-92.8-369.92-0.64z m222.72 300.8a142.72 142.72 0 0 1-199.68-10.88 142.08 142.08 0 0 1 48-192 141.44 141.44 0 0 1 199.04 10.88 142.72 142.72 0 0 1-47.36 192zM880.64 497.28a170.24 170.24 0 0 0 75.52-133.76c0-86.4-99.84-99.84-99.84-99.84H617.6l-88.32 503.68h247.68A179.84 179.84 0 0 0 960 592a96.64 96.64 0 0 0-79.36-94.72z m-152.32-128h64a43.52 43.52 0 0 1 33.28 45.44 74.24 74.24 0 0 1-40.96 57.6h-71.68z m32 297.6h-87.68l16.64-102.4H768s56.96 0 56.96 44.8-56.96 55.04-64.64 55.04z" p-id="7353" fill="#1890ff"></path></svg>