<?xml version="1.0" standalone="no"?><!DOCTYPE svg PUBLIC "-//W3C//DTD SVG 1.1//EN" "http://www.w3.org/Graphics/SVG/1.1/DTD/svg11.dtd"><svg t="1760163109575" class="icon" viewBox="0 0 1025 1024" version="1.1" xmlns="http://www.w3.org/2000/svg" p-id="6784" xmlns:xlink="http://www.w3.org/1999/xlink" width="200.1953125" height="200"><path d="M745.888 571.84l-107.328-160.928c40.032-35.744 65.568-87.392 65.28-145.12-0.512-107.296-87.84-194.304-194.976-193.792s-193.728 88.352-193.216 195.52c0.224 57.76 26.336 109.024 66.464 144.576l-105.664 161.92c-25.44-12-53.312-19.168-83.2-19.04-106.976 0.448-193.728 88.192-193.184 195.52 0.352 107.168 87.84 194.112 194.976 193.536 97.728-0.384 177.664-73.664 190.624-168.128l252.864-1.216c13.728 94.4 94.336 166.944 192.128 166.528 107.072-0.512 193.728-88.128 193.376-195.456-0.544-107.264-88.16-194.208-195.168-193.728-29.728 0.128-57.76 7.68-82.976 19.808zM637.056 713.856l-253.376 1.152c-6.848-46.688-29.952-88.032-63.68-117.888l105.952-162.72c25.408 12.032 53.408 19.36 83.296 19.104 29.792-0.064 58.016-7.616 83.136-19.808l107.616 161.664c-33.76 30.24-56.512 71.648-62.944 118.464z" fill="#1890ff" p-id="6785"></path></svg>