<?xml version="1.0" standalone="no"?><!DOCTYPE svg PUBLIC "-//W3C//DTD SVG 1.1//EN" "http://www.w3.org/Graphics/SVG/1.1/DTD/svg11.dtd"><svg t="1750155157120" class="icon" viewBox="0 0 1024 1024" version="1.1" xmlns="http://www.w3.org/2000/svg" p-id="5463" xmlns:xlink="http://www.w3.org/1999/xlink" width="200" height="200"><path d="M906.88 198.08L640 64c16.192 17.024 26.496 39.808 26.496 65.152v765.76c0 25.28-10.304 48-26.496 65.088l266.88-134.272c32.64-16.448 53.056-49.28 53.12-85.184V283.136c0-35.904-20.48-68.672-53.12-85.12z" fill="#1890ff" p-id="5464"></path><path d="M589.44 64c6.592 0 12.928 4.288 17.664 11.904 4.672 7.68 7.296 18.048 7.296 28.8v814.592c0 10.752-2.624 21.12-7.296 28.8-4.736 7.616-11.072 11.904-17.728 11.904H389.248c-6.656 0-12.992-4.288-17.728-11.904a56.128 56.128 0 0 1-7.296-28.8V104.704c0-10.752 2.624-21.12 7.296-28.8 4.736-7.616 11.072-11.904 17.728-11.904h200.128zM289.088 64c6.656 0 12.992 4.288 17.728 11.904 4.672 7.68 7.296 18.048 7.296 28.8v814.592c0 10.752-2.624 21.12-7.296 28.8-4.736 7.616-11.072 11.904-17.728 11.904H89.024c-6.656 0-12.992-4.288-17.728-11.904a56.128 56.128 0 0 1-7.296-28.8V104.704c0-10.752 2.624-21.12 7.296-28.8 4.736-7.616 11.072-11.904 17.728-11.904h200.128z m261.12 378.752H425.088l-2.368 0.256c-4.224 0.896-8.128 4.288-10.88 9.472a40.32 40.32 0 0 0-4.352 18.816 40.32 40.32 0 0 0 4.352 18.752c2.752 5.248 6.656 8.576 10.88 9.472l2.368 0.256h125.056l2.368-0.256c4.48-0.96 8.448-4.608 11.264-10.24a41.6 41.6 0 0 0 3.968-19.968 37.76 37.76 0 0 0-5.568-18.944c-3.264-4.928-7.552-7.68-12.032-7.616z m-300.288 0H124.928l-2.432 0.256c-4.16 0.896-8.064 4.288-10.88 9.472a40.32 40.32 0 0 0-4.352 18.816 40.32 40.32 0 0 0 4.352 18.752c2.816 5.248 6.72 8.576 10.88 9.472l2.368 0.256h125.12l2.368-0.256c4.48-0.96 8.448-4.608 11.264-10.24a41.6 41.6 0 0 0 3.904-19.968 37.76 37.76 0 0 0-5.504-18.944c-3.264-4.928-7.552-7.68-12.032-7.616zM550.208 320.64H425.152l-2.368 0.256c-4.224 0.896-8.128 4.288-10.88 9.472a40.32 40.32 0 0 0-4.352 18.816 40.32 40.32 0 0 0 4.352 18.752c2.752 5.184 6.656 8.576 10.88 9.472l2.368 0.256h125.056l2.368-0.256c4.48-0.96 8.448-4.608 11.264-10.24a41.6 41.6 0 0 0 3.968-19.968 37.76 37.76 0 0 0-5.568-18.944c-3.264-4.928-7.552-7.68-12.032-7.616z m-300.16 0H124.864l-2.432 0.256c-4.16 0.896-8.064 4.288-10.88 9.472a40.32 40.32 0 0 0-4.352 18.816 40.32 40.32 0 0 0 4.352 18.752c2.816 5.184 6.72 8.576 10.88 9.472l2.368 0.256h125.12l2.368-0.256c4.48-0.96 8.448-4.608 11.264-10.24a41.6 41.6 0 0 0 3.904-19.968 37.76 37.76 0 0 0-5.504-18.944c-3.264-4.928-7.552-7.68-12.032-7.616zM550.144 198.4H425.152l-2.368 0.256c-4.224 0.896-8.128 4.288-10.88 9.472a40.32 40.32 0 0 0-4.352 18.752 40.32 40.32 0 0 0 4.352 18.816c2.752 5.184 6.656 8.576 10.88 9.472l2.368 0.256h125.056l2.368-0.256c4.48-0.96 8.448-4.608 11.264-10.24a41.6 41.6 0 0 0 3.968-19.968 37.76 37.76 0 0 0-5.568-18.944c-3.264-4.928-7.552-7.68-12.032-7.616z m-300.16 0H124.864l-2.432 0.256c-4.16 0.896-8.064 4.288-10.88 9.472a40.32 40.32 0 0 0-4.352 18.752 40.32 40.32 0 0 0 4.352 18.816c2.816 5.184 6.72 8.576 10.88 9.472l2.368 0.256h125.12l2.368-0.256c4.48-0.96 8.448-4.608 11.264-10.24a41.6 41.6 0 0 0 3.904-19.968 37.76 37.76 0 0 0-5.504-18.944c-3.264-4.928-7.552-7.68-12.032-7.616zM256 704a64 64 0 1 1-128 0 64 64 0 0 1 128 0z m232.768 68.352a64 64 0 1 0 0-128 64 64 0 0 0 0 128z" fill="#1890ff" p-id="5465"></path></svg>