<?xml version="1.0" standalone="no"?><!DOCTYPE svg PUBLIC "-//W3C//DTD SVG 1.1//EN" "http://www.w3.org/Graphics/SVG/1.1/DTD/svg11.dtd"><svg t="1755681506619" class="icon" viewBox="0 0 1024 1024" version="1.1" xmlns="http://www.w3.org/2000/svg" p-id="14061" xmlns:xlink="http://www.w3.org/1999/xlink" width="200" height="200"><path d="M934.575 577.253c2.517 6.893 4.284 15.656 5.218 26.005 0.839 10.346-3.447 20.416-13.04 30.017-4.289 4.197-8.196 8.392-11.735 12.212-3.357 4.014-6.43 7.084-9.134 9.782-3.354 3.454-6.426 5.972-9.125 7.832L786.273 553.859c5.309-4.382 11.078-9.699 17.514-15.658 6.517-5.966 11.926-10.722 16.304-14.354 10.24-9.514 21.606-13.619 33.716-12.217 12.205 1.313 22.086 4.014 29.912 8.393 8.66 4.38 17.88 11.836 27.942 22.742 10.063 10.808 17.696 22.272 22.914 34.488zM478.468 862.11l16.775-16.96 32.51-32.625c13.044-12.962 27.392-27.502 42.946-43.532 15.557-16.03 31.205-31.88 46.856-47.542 37.173-37.286 79.283-78.851 126.051-124.901l109.176 109.241-126.135 126.213-46.764 46.795-42.945 42.974c-12.11 12.208-22.172 22.37-30.459 31.32-8.206 8.576-12.769 13.326-13.607 14.166-4.377 3.45-9.125 7.082-14.25 11.092-5.312 3.821-10.344 7.086-15.65 9.698-5.22 2.698-13.234 5.873-24.037 9.78-10.995 3.922-22.08 7.74-33.26 11.004-11.27 3.636-22.08 6.716-32.514 9.136-10.341 2.698-18.167 4.568-23.384 5.31-10.334 1.678-17.326 0.378-20.865-3.82-3.447-4.381-4.288-11.84-2.61-22.181 0.84-5.126 2.61-12.958 5.218-23.304 2.609-10.534 5.685-21.166 9.132-31.882 3.448-10.901 6.71-21.158 9.687-30.575 3.17-9.692 5.596-16.034 7.171-19.67 5.31-11.19 12.201-21.155 20.958-29.737zM848.798 82.04C848.797 36.723 805.48 0 760.21 0H180.618c-45.271 0-88.587 36.723-88.587 82.04v785.963c0 45.308 43.316 88.661 88.587 88.661h119.015l549.165-549.49V82.04zM452.813 645.705H242.096V591.45h210.718v54.255z m0-123.048H242.096V468.4h210.718v54.257z m245.919-123.055H242.096v-54.257h456.637v54.257z m0-123.056H242.096v-54.263h456.637v54.263z" p-id="14062"></path></svg>