<?xml version="1.0" standalone="no"?><!DOCTYPE svg PUBLIC "-//W3C//DTD SVG 1.1//EN" "http://www.w3.org/Graphics/SVG/1.1/DTD/svg11.dtd"><svg t="1747645601269" class="icon" viewBox="0 0 1024 1024" version="1.1" xmlns="http://www.w3.org/2000/svg" p-id="57862" xmlns:xlink="http://www.w3.org/1999/xlink" width="200" height="200"><path d="M42.666667 512a469.333333 469.333333 0 1 0 938.666666 0 469.333333 469.333333 0 1 0-938.666666 0Z" fill="#FF6A00" p-id="57863"></path><path d="M170.666667 170.666667m0 0l682.666666 0q0 0 0 0l0 682.666666q0 0 0 0l-682.666666 0q0 0 0 0l0-682.666666q0 0 0 0Z" fill="#D8D8D8" fill-opacity=".01" p-id="57864"></path><path d="M270.528 270.741333c133.141333-133.269333 349.098667-133.461333 482.474667-0.426666a341.184 341.184 0 0 1 0 483.349333c-133.376 133.056-349.333333 132.864-482.474667-0.426667-133.141333-133.248-133.141333-349.226667 0-482.496z m437.44 45.056c-108.330667-108.224-283.861333-108.16-392.106667 0.128-108.266667 108.288-108.266667 283.84 0 392.149334 108.245333 108.288 283.776 108.352 392.106667 0.106666a277.184 277.184 0 0 0 0-392.384z m-193.706667-59.413333l1.322667 0.853333 80.682667 97.152c0.704 0.746667 1.088 1.706667 1.066666 2.709334a4.16 4.16 0 0 1-1.365333 3.050666l-1.493333 0.917334-1.749334 0.256h-35.392v82.282666a4.394667 4.394667 0 0 1-2.794666 4.053334L552.746667 448h-81.557334a4.522667 4.522667 0 0 1-3.2-1.28l-0.96-1.450667-0.277333-1.664v-82.282666h-35.925333a4.544 4.544 0 0 1-2.816-1.002667 3.989333 3.989333 0 0 1-1.344-2.986667l0.341333-1.6 1.002667-1.344 81.216-97.173333 2.048-1.066667a4.8 4.8 0 0 1 2.986666 0.213334z m-164.650666 171.434667l97.173333 80.661333 1.066667 2.048a4.842667 4.842667 0 0 1-0.213334 3.029333l-0.853333 1.322667-97.173333 81.386667a3.797333 3.797333 0 0 1-2.709334 1.066666 4.138667 4.138667 0 0 1-3.050666-1.365333l-0.917334-1.493333-0.256-1.770667v-35.541333h-82.282666a4.416 4.416 0 0 1-4.053334-2.816L256 552.554667v-81.92c0-1.216 0.469333-2.368 1.28-3.2l1.450667-0.96 1.664-0.277334h83.114666v-35.541333a5.589333 5.589333 0 0 1 0-2.837333l1.962667-1.152h2.176l1.962667 1.152z m331.456 1.664a4.416 4.416 0 0 0-4.053334-2.816 3.797333 3.797333 0 0 0-2.709333 1.066666l-97.066667 81.066667-0.853333 1.322667a4.778667 4.778667 0 0 0-0.256 2.986666l1.109333 2.048 97.066667 80.896 1.962667 1.130667a4.266667 4.266667 0 0 0 4.138666-1.130667 4.16 4.16 0 0 0 1.024-2.816v-36.906666h82.346667l1.642667-0.426667a4.522667 4.522667 0 0 0 2.261333-2.432l0.32-1.749333v-80.725334l-0.341333-1.706666a4.245333 4.245333 0 0 0-3.882667-2.709334h-82.346667v-35.328l-0.362666-1.770666zM551.210667 576c1.216 0 2.368 0.469333 3.221333 1.28l1.002667 1.429333 0.341333 1.685334v82.069333h37.461333a4.138667 4.138667 0 0 1 2.816 1.002667 4.266667 4.266667 0 0 1 1.130667 4.138666l-1.130667 1.941334-80.554666 96.768a4.522667 4.522667 0 0 1-6.058667 0.917333l-0.981333-0.917333-80.725334-96.768a4.117333 4.117333 0 0 1 0.277334-5.802667l1.493333-0.96 1.728-0.32h35.2v-82.069333c0-1.770667 1.066667-3.306667 2.666667-4.010667l1.706666-0.384h80.405334z" fill="#FFFFFF" p-id="57865"></path></svg>