<?xml version="1.0" standalone="no"?><!DOCTYPE svg PUBLIC "-//W3C//DTD SVG 1.1//EN" "http://www.w3.org/Graphics/SVG/1.1/DTD/svg11.dtd"><svg t="1748599065471" class="icon" viewBox="0 0 1024 1024" version="1.1" xmlns="http://www.w3.org/2000/svg" p-id="4934" xmlns:xlink="http://www.w3.org/1999/xlink" width="200" height="200"><path d="M275.661174 0.000512h196.863902v118.118341H275.661174V0.000512z m472.524564 0h-196.915102v118.118341h196.915102V0.000512z m-472.575764 1023.794688H472.576276V905.728059H275.661174v118.118341zM118.170053 0.000512A117.862341 117.862341 0 0 0 0.000512 118.118853v78.796761h118.118341v-39.423981c0-21.657589 17.715191-39.37278 39.42398-39.37278h39.321581V0.000512H118.118853z m0 275.660662H0.000512v196.863902h118.118341V275.661174zM0.000512 748.185738h118.118341v-196.915102H0.000512v196.915102z m118.118341 118.118341v-39.37278H0.000512v78.74556a117.862341 117.862341 0 0 0 118.118341 118.169541h78.796761v-118.169541h-39.423981a39.47518 39.47518 0 0 1-39.37278-39.37278zM905.728059 157.491633v39.423981h118.118341V118.118853A117.862341 117.862341 0 0 0 905.728059 0.000512h-78.74556v118.118341h39.37278c21.657589 0 39.42398 17.715191 39.42398 39.42398z m0 315.033443h118.118341V275.661174H905.728059v196.863902z m100.86395 450.406175l-120.06394-120.11514 137.318331-55.142373-433.151783-157.491121 157.542321 433.151783 55.091172-137.318331 120.11514 120.06394a59.13597 59.13597 0 0 0 83.711958 0 58.982371 58.982371 0 0 0-0.511999-83.148758z" fill="#2c2c2c" p-id="4935"></path></svg>