<?xml version="1.0" standalone="no"?><!DOCTYPE svg PUBLIC "-//W3C//DTD SVG 1.1//EN" "http://www.w3.org/Graphics/SVG/1.1/DTD/svg11.dtd"><svg t="1757923712165" class="icon" viewBox="0 0 1024 1024" version="1.1" xmlns="http://www.w3.org/2000/svg" p-id="6720" xmlns:xlink="http://www.w3.org/1999/xlink" width="200" height="200"><path d="M996.829369 823.017784l-0.219413-0.731376-3.07178-3.07178a122.578673 122.578673 0 0 0-9.58103-9.727306c-52.439683-53.244197-63.702878-67.871723-63.702878-67.871723a487.096636 487.096636 0 0 0 68.89565-249.545604C989.149918 220.363688 767.689165 0.073138 494.593243 0.073138 221.424184 0.073138 0.036569 220.363688 0.036569 492.069995c0 271.706307 221.387615 491.996857 494.556674 491.996857a493.45961 493.45961 0 0 0 250.862082-68.529962l68.017998 66.262696c2.925505 3.218056 6.143561 6.216699 9.361617 9.069066l4.02257 3.949432 1.097065 0.292551a121.335333 121.335333 0 0 0 168.874794-172.092851z m-502.236126 38.03157c-204.85851 0-370.954075-165.217913-370.954074-368.979359s166.022427-368.979359 370.954074-368.979359c204.785372 0 370.807799 165.144775 370.8078 368.979359 0 203.761446-166.022427 368.979359-370.8078 368.979359z m148.249982-523.153489H354.754089c-20.69795 0-40.225698 15.578316-40.298836 32.180558-0.146275 16.821656 16.529105 30.352118 37.227055 30.498393l291.160917-0.950789c20.69795 0.073138 37.446468-10.531819 37.519606-27.2072 0.146275-16.748518-16.821656-34.374688-37.519606-34.520962z m0 257.225055h-298.401542c-17.260481-0.073138-31.668595 18.064995-31.814871 31.961146 0 13.89615 14.627527 29.693879 31.814871 29.767016h298.401542c17.187344 0.073138 35.691165-13.530462 35.837441-27.49975 0-13.89615-18.650096-34.155275-35.837441-34.228412z m0-123.456325L351.170345 471.079494c-20.624813-0.073138-37.519606 13.384187-37.592743 29.98643-0.146275 16.821656 20.478537 32.180559 41.176487 32.326834l287.06521 0.073137c20.69795 0.073138 37.592743-13.384187 37.665881-30.059567 0.146275-16.748518-15.944004-31.668595-36.641955-31.741733z" fill="#ff6a00" p-id="6721"></path></svg>