<?xml version="1.0" standalone="no"?><!DOCTYPE svg PUBLIC "-//W3C//DTD SVG 1.1//EN" "http://www.w3.org/Graphics/SVG/1.1/DTD/svg11.dtd"><svg t="1747050632720" class="icon" viewBox="0 0 1126 1024" version="1.1" xmlns="http://www.w3.org/2000/svg" p-id="3709" xmlns:xlink="http://www.w3.org/1999/xlink" width="219.921875" height="200"><path d="M563.161705 568.85271m-153.589556 0a153.589556 153.589556 0 1 0 307.179112 0 153.589556 153.589556 0 1 0-307.179112 0Z" p-id="3710"></path><path d="M1002.9398 146.481431h-102.393037L870.340817 39.480707A56.316171 56.316171 0 0 0 814.536612 0.059388H307.179112a56.316171 56.316171 0 0 0-56.316171 39.421319l-25.598259 107.000724h-102.393037A121.847714 121.847714 0 0 0 0 266.281285v637.908622A121.847714 121.847714 0 0 0 123.38361 1023.989761h879.55619A121.847714 121.847714 0 0 0 1126.32341 904.189907V266.281285a121.847714 121.847714 0 0 0-123.38361-119.799854zM819.144298 568.85271a255.982593 255.982593 0 1 1-255.982593-255.982593 255.982593 255.982593 0 0 1 255.982593 255.982593z" p-id="3711"></path></svg>