<?xml version="1.0" standalone="no"?><!DOCTYPE svg PUBLIC "-//W3C//DTD SVG 1.1//EN" "http://www.w3.org/Graphics/SVG/1.1/DTD/svg11.dtd"><svg t="1748938002115" class="icon" viewBox="0 0 1024 1024" version="1.1" xmlns="http://www.w3.org/2000/svg" p-id="7103" xmlns:xlink="http://www.w3.org/1999/xlink" width="200" height="200"><path d="M192 896l640 0 0 64L192 960 192 896zM1024 704 0 704 0 64l1024 0L1024 704zM64 640l896 0L960 128 64 128 64 640zM896 384l-217.664-192 0 160L345.728 352 345.728 192 128 384l217.728 192L345.728 416l332.544 0L678.272 576 896 384zM640 768 384 768l0 128 256 0L640 768z" fill="#1890ff" p-id="7104"></path></svg>