<?xml version="1.0" standalone="no"?><!DOCTYPE svg PUBLIC "-//W3C//DTD SVG 1.1//EN" "http://www.w3.org/Graphics/SVG/1.1/DTD/svg11.dtd"><svg t="1747645127516" class="icon" viewBox="0 0 1024 1024" version="1.1" xmlns="http://www.w3.org/2000/svg" p-id="46819" xmlns:xlink="http://www.w3.org/1999/xlink" width="200" height="200"><path d="M512 512m-469.333333 0a469.333333 469.333333 0 1 0 938.666666 0 469.333333 469.333333 0 1 0-938.666666 0Z" fill="#FF6A00" p-id="46820"></path><path d="M726.378667 298.666667c1.066667 0 2.069333 0.341333 2.901333 0.981333l101.418667 74.688a3.904 3.904 0 0 1 0 5.824v0.746667l-101.418667 74.688a5.034667 5.034667 0 0 1-6.464-0.597334 3.904 3.904 0 0 1-0.917333-2.688v-47.125333H658.56c-62.464 1.941333-112 49.152-112 106.709333 0 57.578667 49.536 104.768 112 106.709334h63.317333v-47.253334c0-2.282667 2.005333-4.117333 4.48-4.117333a5.738667 5.738667 0 0 1 2.901334 0.853333l101.418666 74.816a3.904 3.904 0 0 1 0 5.824v0.618667l-101.418666 74.816a4.8 4.8 0 0 1-4.864 0.576 4.096 4.096 0 0 1-2.517334-3.84v-47.146667H658.56c-59.605333-1.493333-111.594667-30.208-142.144-72.981333l4.565333-6.634667c-30.762667 48.064-86.101333 77.973333-146.197333 79.616h-72.704v47.146667a4.266667 4.266667 0 0 1-1.045333 2.901333 4.757333 4.757333 0 0 1-6.336 0.597334l-101.418667-75.050667v-0.618667a3.904 3.904 0 0 1 0-5.824l101.418667-74.816a5.696 5.696 0 0 1 2.389333-0.853333c2.474667 0 4.48 1.834667 4.48 4.117333v47.253334h63.146667c42.346667 1.322667 82.069333-18.730667 103.68-52.266667a99.562667 99.562667 0 0 0 0-108.864c-20.16-31.317333-56.106667-50.858667-95.232-52.266667H302.08v47.104a4.053333 4.053333 0 0 1-1.045333 2.688 4.757333 4.757333 0 0 1-6.336 0.597334l-101.418667-74.688v-0.746667a3.904 3.904 0 0 1 0.661333-5.824l100.757334-74.688a4.821333 4.821333 0 0 1 2.389333-0.981333c2.474667 0 4.48 1.856 4.48 4.138666v47.232h63.146667c61.12-1.536 118.485333 26.24 151.786666 73.002667 30.464-42.794667 82.453333-71.488 142.08-73.002667h63.296v-47.232c0-1.109333 0.469333-2.154667 1.301334-2.922666A4.693333 4.693333 0 0 1 726.4 298.666667z" fill="#FFFFFF" p-id="46821"></path></svg>