<?xml version="1.0" standalone="no"?><!DOCTYPE svg PUBLIC "-//W3C//DTD SVG 1.1//EN" "http://www.w3.org/Graphics/SVG/1.1/DTD/svg11.dtd"><svg t="1747643830203" class="icon" viewBox="0 0 1024 1024" version="1.1" xmlns="http://www.w3.org/2000/svg" p-id="11597" xmlns:xlink="http://www.w3.org/1999/xlink" width="200" height="200"><path d="M511.162424 961.38287c-247.52549 0-448.187649-200.663182-448.187649-448.194812 0-247.52549 200.663182-448.187649 448.187649-448.187649s448.187649 200.663182 448.187649 448.187649C959.350073 760.719688 758.68689 961.38287 511.162424 961.38287zM410.655336 293.687856c-46.016033 8.433066-85.990466 34.293037-112.542192 72.802096-26.589588 38.509059-36.576033 85.064374-28.136827 131.086547 1.480724 8.05956 8.498558 13.691837 16.406668 13.691837 0.998747 0 2.012843-0.080841 3.034103-0.270153 9.074679-1.670036 15.071254-10.380418 13.407358-19.440771-6.826476-37.246299 1.269923-74.924433 22.760376-106.101503 21.520129-31.163767 53.864792-52.084239 91.096764-58.912761 9.073656-1.670036 15.084557-10.358929 13.408381-19.433608C428.424025 298.028721 419.715689 292.032146 410.655336 293.687856zM416.548556 360.610034c-55.323003 10.139941-92.074022 63.406099-81.934081 118.729102 1.487887 8.060583 8.490372 13.691837 16.398482 13.691837 1.006933 0 2.028193-0.094144 3.034103-0.284479 9.074679-1.655709 15.08558-10.358929 13.422707-19.440771-6.828522-37.202297 17.886369-73.027224 55.088666-79.847559 9.074679-1.655709 15.08558-10.365068 13.422707-19.425422C434.319292 364.958062 425.594583 358.954325 416.548556 360.610034zM437.674713 412.957263c-15.245216 2.786463-28.492938 11.364839-37.318954 24.12342-8.783037 12.772908-12.109806 28.201296-9.307993 43.447535 1.473561 8.05342 8.490372 13.707187 16.398482 13.707187 0.992607 0 2.013867-0.095167 3.035126-0.284479 9.074679-1.670036 15.08558-10.366092 13.408381-19.440771-1.182942-6.477528 0.218988-13.035898 3.968381-18.441001 3.734044-5.426593 9.366322-9.066493 15.8285-10.255575 9.074679-1.655709 15.08558-10.358929 13.422707-19.440771C455.444425 417.305291 446.763718 411.29439 437.674713 412.957263zM684.570869 234.83547c-19.621896-11.205203-42.190915-16.311501-66.716494-15.223726-1.809205-0.284479-3.662413-0.467651-5.559623-0.51063-0.146333 0-1.02126-0.014326-1.136893-0.014326-39.960107 0-76.492138 50.231031-84.983533 116.854405-5.529947 43.447535 2.64013 82.722026 21.826098 105.058754 10.19827 11.869329 23.022343 18.324344 37.362956 18.659989 0.01535 0 1.590218 0.429789 2.130524 1.078565 0.729617 0.911766 1.590218 4.136204 0.451278 10.606569-8.287757 20.469194-18.120706 40.792055-29.223578 60.437487-12.093433 21.3871-25.632797 41.841967-40.294728 60.866253-0.160659 0.174985-0.321318 0.349971-0.496304 0.525979-2.509147 2.844791-4.187369 2.844791-4.989641 2.844791-2.816139 0-6.229888-1.766226-8.286734-3.108804-9.585309-13.114692-25.429159-20.308535-45.0091-20.308535-26.318412 0-57.68684 12.824073-86.063121 35.160801-52.055586 41.011043-73.42836 96.144734-54.404074 130.96989 1.692548 3.106758 1.867534 3.442402 3.544733 6.462179 12.605086 19.345604 27.501354 36.137035 46.569642 47.036269 17.872043 10.211573 38.093597 15.376199 60.151985 15.376199l0 0 0.01535 0c-0.01535 0-0.01535 0-0.01535 0 87.041402 0 191.31221-81.015152 259.473613-201.596438C777.259898 449.752284 775.334036 286.707884 684.570869 234.83547zM429.446307 774.519995c-16.222473 0-30.92943-3.704368-43.739177-11.028171-14.092973-8.067746-27.180036-21.826098-35.919071-36.95568-0.729617-1.2689-1.692548-2.844791-3.034103-5.383614-8.768711-16.45681 8.403391-56.738235 47.299259-87.376023 22.321378-17.566074 46.831608-28.055986 65.593927-28.055986 6.448876 0 14.94027 1.284249 18.834974 7.54279 0.861624 1.400906 1.941212 2.668783 3.195785 3.735068 1.428535 1.240247 14.458293 12.123109 31.265074 12.123109 10.592242 0 20.250206-4.200672 28.084639-12.168134 0.861624-0.743944 1.663896-1.574868 2.378164-2.508123 16.07614-20.702508 30.92943-43.040259 44.116777-66.366523 12.094456-21.390169 22.760376-43.550888 31.718399-65.843614 0.364297-0.926092 0.656963-1.874697 0.846274-2.837628 3.385097-16.376992 1.079588-29.67588-6.872524-39.486316-10.417257-12.868075-25.925463-13.349029-27.355021-13.349029-1.662873-0.044002-6.754844-0.153496-12.751419-7.134491-12.808724-14.896268-18.324344-46.029336-14.092973-79.301114 6.40692-50.334385 32.797987-87.938841 52.464909-87.938841 0.773619 0.028653 1.546216 0.153496 2.290159 0.314155 1.342578 0.255827 2.713808 0.335644 4.085038 0.261966 18.689664-1.108241 35.789111 2.538823 50.290383 10.81123 72.247464 41.280172 68.570725 190.633758-8.03807 326.138942C598.595752 698.524161 503.749594 774.519995 429.446307 774.519995z" fill="#D12F2F" p-id="11598"></path></svg>