<?xml version="1.0" standalone="no"?><!DOCTYPE svg PUBLIC "-//W3C//DTD SVG 1.1//EN" "http://www.w3.org/Graphics/SVG/1.1/DTD/svg11.dtd"><svg t="1747643908023" class="icon" viewBox="0 0 1024 1024" version="1.1" xmlns="http://www.w3.org/2000/svg" p-id="12662" xmlns:xlink="http://www.w3.org/1999/xlink" width="200" height="200"><path d="M595.2 57.6c-51.2-51.2-128-51.2-179.2 0-25.6 19.2-38.4 51.2-38.4 83.2v-6.4c-76.8 19.2-147.2 57.6-211.2 115.2C25.6 390.4 0 601.6 89.6 768v-6.4c-44.8 51.2-44.8 128 0 179.2 51.2 51.2 128 51.2 179.2 0h-6.4c140.8 70.4 307.2 64 441.6-19.2 51.2 38.4 121.6 38.4 172.8-6.4 51.2-51.2 51.2-128 0-179.2l-6.4-6.4c76.8-153.6 51.2-345.6-83.2-480-44.8-44.8-102.4-76.8-160-102.4 6.4-32-6.4-64-32-89.6zM134.4 908.8c-32-32-32-83.2 0-115.2s83.2-32 115.2 0 32 83.2 0 115.2c-32 25.6-83.2 25.6-115.2 0z m716.8-19.2c-32 32-83.2 32-115.2 0s-32-83.2 0-115.2 83.2-32 115.2 0c25.6 32 25.6 83.2 0 115.2z m-12.8-179.2c-44.8-19.2-102.4-6.4-134.4 25.6-38.4 38.4-44.8 102.4-19.2 153.6-115.2 70.4-256 76.8-377.6 12.8 25.6-51.2 19.2-108.8-19.2-147.2-38.4-38.4-102.4-44.8-147.2-19.2-83.2-147.2-64-326.4 64-454.4 51.2-51.2 108.8-83.2 172.8-96 6.4 12.8 19.2 32 32 51.2 51.2 51.2 128 51.2 179.2 0 12.8-12.8 19.2-25.6 25.6-38.4 51.2 19.2 96 44.8 134.4 89.6 121.6 115.2 147.2 281.6 89.6 422.4zM556.8 204.8c-25.6 32-76.8 32-108.8 0s-32-83.2 0-115.2 83.2-32 115.2 0c25.6 32 25.6 83.2-6.4 115.2z" fill="#FC3768" p-id="12663"></path><path d="M480 812.8c-19.2 0-38.4-6.4-57.6-25.6 0 0-140.8-134.4-153.6-153.6-12.8-12.8-25.6-32-32-51.2-6.4-19.2-12.8-38.4-12.8-64 0-19.2 6.4-44.8 12.8-64 6.4-19.2 19.2-38.4 32-57.6 32-32 76.8-51.2 121.6-51.2 32 0 64 6.4 89.6 25.6 25.6-19.2 57.6-25.6 89.6-25.6 44.8 0 89.6 19.2 121.6 51.2 19.2 19.2 32 32 38.4 57.6 6.4 19.2 12.8 44.8 12.8 64 0 19.2-6.4 44.8-12.8 64-12.8 19.2-25.6 38.4-44.8 57.6l-121.6 121.6-25.6 25.6c-19.2 19.2-38.4 25.6-57.6 25.6zM390.4 384c-38.4 0-70.4 12.8-96 38.4-12.8 12.8-25.6 25.6-32 44.8-6.4 19.2-6.4 32-6.4 51.2s0 38.4 6.4 51.2c6.4 19.2 19.2 32 32 44.8 12.8 12.8 153.6 147.2 153.6 153.6 6.4 6.4 19.2 12.8 32 12.8s25.6-6.4 32-12.8l25.6-25.6c44.8-44.8 121.6-115.2 121.6-121.6 12.8-12.8 25.6-25.6 32-44.8 12.8-19.2 12.8-38.4 12.8-57.6 0-19.2 0-32-12.8-51.2-6.4-19.2-19.2-32-32-44.8-19.2-25.6-51.2-38.4-89.6-38.4-32 0-57.6 6.4-83.2 25.6-6.4 6.4-12.8 6.4-19.2 0C448 390.4 416 384 390.4 384z" fill="#FC3768" p-id="12664"></path><path d="M320 512c-6.4 0-19.2-6.4-12.8-19.2 6.4-51.2 51.2-70.4 70.4-76.8 6.4 0 19.2 6.4 19.2 12.8S390.4 448 384 448s-38.4 6.4-44.8 44.8c0 12.8-12.8 19.2-19.2 19.2z" fill="#FC3768" p-id="12665"></path></svg>