<?xml version="1.0" standalone="no"?><!DOCTYPE svg PUBLIC "-//W3C//DTD SVG 1.1//EN" "http://www.w3.org/Graphics/SVG/1.1/DTD/svg11.dtd"><svg t="1745978914435" class="icon" viewBox="0 0 1024 1024" version="1.1" xmlns="http://www.w3.org/2000/svg" p-id="29958" xmlns:xlink="http://www.w3.org/1999/xlink" width="256" height="256"><path d="M512 0c282.737778 0 512 229.262222 512 512s-229.262222 512-512 512S0 794.737778 0 512 229.262222 0 512 0z" fill="#E6EFFF" p-id="29959"></path><path d="M428.743111 519.111111a80.497778 80.497778 0 0 0 80.384 80.611556 80.497778 80.497778 0 0 0 80.384-80.611556 80.497778 80.497778 0 0 0-80.384-80.611555 80.497778 80.497778 0 0 0-80.384 80.611555z m391.992889-18.574222C752.696889 356.778667 649.870222 284.444444 512 284.444444c-137.955556 0-240.696889 72.334222-308.736 216.177778a43.52 43.52 0 0 0 0 37.063111C271.303111 681.443556 374.129778 753.777778 512 753.777778c137.955556 0 240.696889-72.334222 308.736-216.177778a43.52 43.52 0 0 0 0-37.063111zM509.155556 645.802667a126.492444 126.492444 0 0 1-126.293334-126.691556 126.492444 126.492444 0 0 1 126.293334-126.691555 126.492444 126.492444 0 0 1 126.293333 126.691555 126.492444 126.492444 0 0 1-126.293333 126.691556z" fill="#3F80F7" p-id="29960"></path></svg>