<?xml version="1.0" standalone="no"?><!DOCTYPE svg PUBLIC "-//W3C//DTD SVG 1.1//EN" "http://www.w3.org/Graphics/SVG/1.1/DTD/svg11.dtd"><svg t="1755143357243" class="icon" viewBox="0 0 1024 1024" version="1.1" xmlns="http://www.w3.org/2000/svg" p-id="11806" xmlns:xlink="http://www.w3.org/1999/xlink" width="200" height="200"><path d="M722.013091 570.212848c123.93503 0 224.411152 96.721455 224.411151 216.03297a212.030061 212.030061 0 0 1-65.722181 152.762182 228.941576 228.941576 0 0 1-158.72 63.301818l-0.031031-0.03103c-123.966061-0.03103-224.411152-96.752485-224.411151-216.064 0.03103-119.311515 100.538182-216.001939 224.473212-215.970909z m121.514667 160.178425l-179.572364 172.838788h-0.062061c51.510303 23.769212 113.012364 13.653333 153.382788-25.227637 40.401455-38.849939 50.920727-98.055758 26.251637-147.611151zM430.576485 9.309091c119.156364 0 215.722667 95.325091 215.722667 212.929939 0 75.496727-39.780848 141.808485-99.793455 179.603394l65.101576 151.583031h-98.831515l-44.590546-123.655758c-16.601212 2.07903-50.269091 2.07903-66.839273 0l-89.894787 222.611394H480.969697v85.02303H162.195394v88.126061H480.969697v74.162424L77.575758 899.723636v-247.311515h129.427394l107.675151-250.569697a212.123152 212.123152 0 0 1-99.824485-179.603394C214.853818 104.634182 311.451152 9.309091 430.576485 9.309091z m196.111515 685.273212c-38.694788 37.236364-49.958788 93.090909-29.168485 141.312l2.854788 6.144 179.603394-172.745697c-51.510303-23.707152-112.950303-13.591273-153.289697 25.289697zM430.576485 95.883636c-69.632 0-126.076121 55.358061-126.076121 123.655758 0 68.297697 56.444121 123.686788 126.076121 123.686788 45.02497 0 86.667636-23.58303 109.164606-61.843394a121.638788 121.638788 0 0 0 0-123.655758 126.541576 126.541576 0 0 0-109.164606-61.843394z" p-id="11807"></path></svg>