<?xml version="1.0" standalone="no"?><!DOCTYPE svg PUBLIC "-//W3C//DTD SVG 1.1//EN" "http://www.w3.org/Graphics/SVG/1.1/DTD/svg11.dtd"><svg t="1753761348465" class="icon" viewBox="0 0 1024 1024" version="1.1" xmlns="http://www.w3.org/2000/svg" p-id="6360" xmlns:xlink="http://www.w3.org/1999/xlink" width="200" height="200"><path d="M490.88 553.4464h53.5552v33.6128h-53.5552zM403.2 418.7392h53.5552v33.6128H403.2zM403.2 486.1952h53.5552v33.6128H403.2zM403.2 553.4464h53.5552v33.6128H403.2z" fill="#1890ff" p-id="6361"></path><path d="M897.0752 524.032a136.8064 136.8064 0 0 0 13.312-183.04c-43.264-55.5008-121.6256-69.9136-182.0672-33.4848-55.424-115.0464-182.8864-177.792-308.8384-152.064-125.9776 25.7536-217.984 133.376-223.0016 260.7616C81.0496 444.8512 5.5296 554.5984 20.736 671.5648c15.1808 116.992 116.3008 204.1856 235.264 202.9056h560.64c86.8864 0.1792 162.2784-59.3664 181.5552-143.3344 19.2768-83.968-22.7328-169.984-101.12-207.104z m-171.7504 213.1968H328.1152v-36.3776h32.64v-328.448h226.56v328.448h28.16v-96.8704h39.2448V570.368h-39.2448v-33.6128h39.2448v-33.8432h-39.2448V465.664h81.28v235.1616h28.5696v36.352z" fill="#1890ff" p-id="6362"></path><path d="M490.88 486.1952h53.5552v33.6128h-53.5552zM490.88 418.7392h53.5552v33.6128h-53.5552z" fill="#1890ff" p-id="6363"></path></svg>